<svg xmlns="http://www.w3.org/2000/svg" width="14.129" height="14.129" viewBox="0 0 14.129 14.129">
    <g id="noun-about-2940538" transform="translate(-98.007 -28.007)">
        <path id="Path_45595" data-name="Path 45595" d="M106.717,31.592a.732.732,0,1,1-.215-.518A.733.733,0,0,1,106.717,31.592Zm-1.655,5.923,1.011-3.772c.187-.7-.885-.986-1.578-.651h0a2.692,2.692,0,0,0-1.068.932c.436-.191,1.408-.624,1.054.7l-1.011,3.772c-.187.7.885.986,1.578.651h0a2.691,2.691,0,0,0,1.068-.932c-.436.191-1.408.624-1.054-.7Zm7.075-8.032V40.659a1.479,1.479,0,0,1-1.477,1.477H99.484a1.479,1.479,0,0,1-1.477-1.477V29.484a1.479,1.479,0,0,1,1.477-1.477h11.176a1.479,1.479,0,0,1,1.477,1.477Zm-.785,0a.693.693,0,0,0-.692-.692H99.484a.693.693,0,0,0-.692.692V40.659a.693.693,0,0,0,.692.692h11.176a.693.693,0,0,0,.692-.692Z" transform="translate(0)" fill="#f98c10"/>
    </g>
</svg>
