<svg xmlns="http://www.w3.org/2000/svg" width="13.45" height="13.648" viewBox="0 0 13.45 13.648">
    <g id="Your_Order" data-name="Your Order" transform="translate(-1.71 -1.5)">
        <path id="Path_45562" data-name="Path 45562" d="M14.925,1.5H1.945a.235.235,0,0,0-.235.235V14.913a.235.235,0,0,0,.235.235h12.98a.235.235,0,0,0,.235-.235V1.735A.235.235,0,0,0,14.925,1.5ZM14.69,3.382H9.612V1.971H14.69Zm-6.96.471H9.141v3.9L8.6,7.218a.226.226,0,0,0-.329,0l-.541.536ZM9.141,1.971V3.382H7.729V1.971Zm-6.96,0H7.259V3.382H2.181ZM8.67,14.677V11.383h1.412v3.294Zm3.765,0V11.383h1.412v3.294Zm2.254,0h-.372v-3.53a.235.235,0,0,0-.235-.235H12.2a.235.235,0,0,0-.235.235v3.53H10.553v-3.53a.235.235,0,0,0-.235-.235H8.435a.235.235,0,0,0-.235.235v3.53H2.181V3.853H7.259V8.324A.235.235,0,0,0,7.4,8.54a.221.221,0,0,0,.254-.052l.777-.772.777.772a.221.221,0,0,0,.165.071.2.2,0,0,0,.089,0,.235.235,0,0,0,.146-.235V3.853H14.69Z" fill="#f98c10"/>
    </g>
</svg>
