<svg xmlns="http://www.w3.org/2000/svg" xmlns:xlink="http://www.w3.org/1999/xlink" viewBox="54 51 40 40">
  <defs>
    <filter id="Path_57" x="0" y="0" width="148" height="148" filterUnits="userSpaceOnUse">
      <feOffset dy="3" input="SourceAlpha"/>
      <feGaussianBlur stdDeviation="18" result="blur"/>
      <feFlood flood-opacity="0.102"/>
      <feComposite operator="in" in2="blur"/>
      <feComposite in="SourceGraphic"/>
    </filter>
  </defs>
  <g id="Group_9973" data-name="Group 9973" transform="translate(34 8)">
    <g transform="matrix(1, 0, 0, 1, -34, -8)" filter="url(#Path_57)">
      <path id="Path_57-2" data-name="Path 57" d="M20,0A20,20,0,1,1,0,20,20,20,0,0,1,20,0Z" transform="translate(54 51)"/>
    </g>
    <path id="back" d="M31.933,16.493a1.165,1.165,0,0,1-.738-.253l-7.086-5.8a1.572,1.572,0,0,1,0-2.52l7.086-5.8a1.193,1.193,0,0,1,1.046-.245A.988.988,0,0,1,33,2.535a.822.822,0,0,1-.325.879L25.632,9.179l7.039,5.764a.807.807,0,0,1,.248.987A1.076,1.076,0,0,1,31.933,16.493Z" transform="translate(11.522 54.159)" fill="#fff"/>
  </g>
</svg>