<svg xmlns="http://www.w3.org/2000/svg" width="8.399" height="8.399" viewBox="0 0 8.399 8.399">
    <path id="Path_577" data-name="Path 577" d="M13.1,11.1l-1.345-.976c-.4-.292-.73.081-.926.3-.274.312-.332.316-.428.248a11.524,11.524,0,0,1-1.444-1.23A11.525,11.525,0,0,1,7.729,8c-.068-.1-.064-.154.248-.428.222-.2.595-.524.3-.926L7.3,5.3a.738.738,0,0,0-.935-.221,2.973,2.973,0,0,0-1.076.665c-.416.416-.387,1.2.081,2.2a10.936,10.936,0,0,0,2.16,2.928,10.936,10.936,0,0,0,2.928,2.16,3.4,3.4,0,0,0,1.387.373,1.1,1.1,0,0,0,.81-.292,2.974,2.974,0,0,0,.665-1.076A.738.738,0,0,0,13.1,11.1Zm-.22.785a2.515,2.515,0,0,1-.553.9c-.259.259-.883.194-1.67-.174a10.467,10.467,0,0,1-2.8-2.068A10.467,10.467,0,0,1,5.8,7.74c-.368-.787-.433-1.411-.174-1.67a2.515,2.515,0,0,1,.9-.553.749.749,0,0,1,.231-.049.191.191,0,0,1,.176.1L7.9,6.916c.03.041,0,.092-.234.3s-.655.577-.32,1.049a12,12,0,0,0,1.28,1.5,12,12,0,0,0,1.5,1.28c.472.335.833-.075,1.049-.32s.261-.264.3-.234l1.345.976C12.912,11.534,12.983,11.586,12.882,11.881Zm.049-3.152A3.265,3.265,0,0,0,9.671,5.468a.233.233,0,0,1,0-.467A3.732,3.732,0,0,1,13.4,8.729a.233.233,0,1,1-.467,0Zm-.992,0a2.272,2.272,0,0,0-2.269-2.27.233.233,0,1,1,0-.467,2.739,2.739,0,0,1,2.736,2.736.233.233,0,0,1-.467,0Zm-.525,0a.233.233,0,1,1-.467,0A1.279,1.279,0,0,0,9.671,7.451a.233.233,0,1,1,0-.467,1.746,1.746,0,0,1,1.744,1.745Z" transform="translate(-5 -5)" fill="#838383"/>
</svg>
