<svg xmlns="http://www.w3.org/2000/svg" width="23.458" height="19.52" viewBox="0 0 23.458 19.52">
  <g id="Group_3708" data-name="Group 3708" transform="translate(-1706.932 676)">
    <path id="Path_18853" data-name="Path 18853" d="M251.156,397.6a1.955,1.955,0,1,0,1.955,1.955A1.943,1.943,0,0,0,251.156,397.6Zm0,2.793a.838.838,0,1,1,.838-.838A.823.823,0,0,1,251.156,400.393Z" transform="translate(1464.433 -1057.99)"/>
    <path id="Path_18854" data-name="Path 18854" d="M413.556,397.6a1.955,1.955,0,1,0,1.955,1.955A1.943,1.943,0,0,0,413.556,397.6Zm0,2.793a.838.838,0,1,1,.838-.838A.823.823,0,0,1,413.556,400.393Z" transform="translate(1310.132 -1057.99)"/>
    <path id="Path_18855" data-name="Path 18855" d="M138.255,88.467V88.3c0-.028,0-.028-.028-.056,0-.028,0-.028-.028-.056,0-.028-.028-.028-.028-.056s-.028-.028-.028-.056a.027.027,0,0,0-.028-.028l-.056-.056c-.028,0-.028-.028-.056-.028s-.028-.028-.056-.028-.028-.028-.056-.028H119.433l-.726-2.932a.538.538,0,0,0-.531-.419h-2.821a.558.558,0,1,0,0,1.117H117.7l3.239,12.985a.538.538,0,0,0,.531.419h12.846a.571.571,0,0,0,.531-.391L138.2,88.634v-.084c.056-.056.056-.056.056-.083Zm-4.3,9.467H121.947L119.713,89h17.23Z" transform="translate(1592.134 -760.557)"/>
    <path id="Path_18856" data-name="Path 18856" d="M372.959,218.4a.56.56,0,0,0-.558.558v3.351a.558.558,0,0,0,1.117,0v-3.351A.56.56,0,0,0,372.959,218.4Z" transform="translate(1347.377 -887.726)"/>
    <path id="Path_18857" data-name="Path 18857" d="M305.759,218.4a.56.56,0,0,0-.558.558v3.351a.558.558,0,0,0,1.117,0v-3.351A.56.56,0,0,0,305.759,218.4Z" transform="translate(1411.226 -887.726)"/>
    <path id="Path_18858" data-name="Path 18858" d="M434.56,218.4a.56.56,0,0,0-.558.558v3.351a.558.558,0,0,0,1.117,0v-3.351A.56.56,0,0,0,434.56,218.4Z" transform="translate(1288.849 -887.726)"/>
  </g>
</svg>
