<svg xmlns="http://www.w3.org/2000/svg" width="17.553" height="17.553" viewBox="0 0 17.553 17.553">
  <g id="Group_5613" data-name="Group 5613" transform="translate(-285.701 -1229.115)">
    <path id="Path_1342" data-name="Path 1342" d="M259.7,229.931a.219.219,0,1,0,.439,0,1.251,1.251,0,1,0-2.5,0,.219.219,0,0,0,.439,0,.812.812,0,1,1,1.624,0Z" transform="translate(33.223 1007.202)" fill="#171717"/>
    <path id="Path_1343" data-name="Path 1343" d="M378.746,230.149a.219.219,0,0,0,.22-.219.812.812,0,1,1,1.624,0,.219.219,0,0,0,.439,0,1.251,1.251,0,1,0-2.5,0,.219.219,0,0,0,.219.219Z" transform="translate(-82.932 1007.203)" fill="#171717"/>
    <path id="Path_1344" data-name="Path 1344" d="M126.23,66.31c.6-.022,1.163-.022,1.686-.005a9.64,9.64,0,0,0,.412,1.943,9.019,9.019,0,0,0-1.894.632.219.219,0,0,0,.1.417.217.217,0,0,0,.1-.022,8.632,8.632,0,0,1,1.847-.608c1.09,2.883,3.5,4.893,6.3,4.893s5.214-2.01,6.3-4.893a8.639,8.639,0,0,1,1.847.608.219.219,0,1,0,.193-.394,9.024,9.024,0,0,0-1.893-.632,9.641,9.641,0,0,0,.412-1.943c.523-.016,1.084-.017,1.686.005a.219.219,0,1,0,.016-.438c-.593-.022-1.147-.023-1.665-.009.013-.209.022-.418.022-.631a7.656,7.656,0,0,0-.476-2.773c.123-.526,1.143-5.045.254-6.165a.722.722,0,0,0-.58-.288c-1.512,0-2.981,1.841-3.268,2.22a13.225,13.225,0,0,1-5.707,0c-.29-.383-1.756-2.219-3.266-2.219a.722.722,0,0,0-.58.288c-.888,1.119.129,5.628.254,6.163a7.664,7.664,0,0,0-.476,2.775c0,.213.009.423.022.631-.517-.014-1.072-.013-1.665.009a.219.219,0,0,0,.016.438Zm2.129.013a14.927,14.927,0,0,1,4.513.819c0,.024-.011.047-.014.072a1.311,1.311,0,0,0,.033.5,26.211,26.211,0,0,0-4.132.439,9.2,9.2,0,0,1-.4-1.831Zm7.614,1.713-.529.456a1.015,1.015,0,0,1-.663.249l-.008,0h0a1.015,1.015,0,0,1-.655-.248l-.529-.456a.862.862,0,0,1-.291-.766.808.808,0,0,1,.451-.635,2.728,2.728,0,0,1,2.069,0,.808.808,0,0,1,.451.635.862.862,0,0,1-.291.766Zm-1.194,5.084c-2.593,0-4.835-1.863-5.871-4.545a26.9,26.9,0,0,1,4.189-.425,1.3,1.3,0,0,0,.2.22l.529.456a1.457,1.457,0,0,0,.726.336v.315a.891.891,0,0,1-.893.886.219.219,0,1,0,0,.439,1.333,1.333,0,0,0,1.112-.6,1.332,1.332,0,0,0,1.112.6.219.219,0,0,0,0-.439.891.891,0,0,1-.893-.886v-.313a1.454,1.454,0,0,0,.737-.337l.529-.456a1.29,1.29,0,0,0,.2-.22,26.9,26.9,0,0,1,4.189.425c-1.036,2.683-3.278,4.546-5.871,4.546Zm6.02-4.966a26.212,26.212,0,0,0-4.132-.439,1.308,1.308,0,0,0,.033-.5c0-.024-.009-.048-.014-.072a14.918,14.918,0,0,1,4.513-.819,9.2,9.2,0,0,1-.4,1.831Zm-12.5-2.923c0-2.5.981-4.323,2.837-5.286a.219.219,0,0,0-.2-.39,5.346,5.346,0,0,0-2.294,2.234c-.329-1.6-.78-4.511-.214-5.224a.282.282,0,0,1,.236-.122c1.426,0,2.945,2.082,2.96,2.1a.221.221,0,0,0,.123.084,13.4,13.4,0,0,0,6.077,0,.22.22,0,0,0,.122-.084c.015-.021,1.534-2.1,2.96-2.1a.282.282,0,0,1,.236.122c.567.714.115,3.629-.214,5.227a5.333,5.333,0,0,0-2.188-2.181.22.22,0,1,0-.21.386c1.817.988,2.738,2.749,2.738,5.233,0,.218-.009.434-.024.648a15.04,15.04,0,0,0-4.707.851,1.244,1.244,0,0,0-.526-.489,3.153,3.153,0,0,0-2.453,0,1.243,1.243,0,0,0-.526.489,15.066,15.066,0,0,0-4.706-.851c-.015-.214-.024-.43-.024-.648Z" transform="translate(159.698 1173.11)" fill="#171717"/>
  </g>
</svg>
