<svg xmlns="http://www.w3.org/2000/svg" width="38.5" height="38.5" viewBox="0 0 38.5 38.5">
  <g id="Group_9369" data-name="Group 9369" transform="translate(-347 -114)">
    <g id="Path_856" data-name="Path 856" transform="translate(347 114)" fill="red">
      <path d="M 19.25 38 C 16.71854972839355 38 14.26307964324951 37.50431823730469 11.95180988311768 36.52674102783203 C 9.71912956237793 35.58238983154297 7.713880062103271 34.23038101196289 5.99174976348877 32.50825119018555 C 4.269619941711426 30.78611946105957 2.917609930038452 28.78087043762207 1.973260045051575 26.54818916320801 C 0.9956799745559692 24.23691940307617 0.5 21.78145027160645 0.5 19.25 C 0.5 16.71854972839355 0.9956799745559692 14.26307964324951 1.973260045051575 11.95180988311768 C 2.917609930038452 9.71912956237793 4.269619941711426 7.713880062103271 5.99174976348877 5.99174976348877 C 7.713880062103271 4.269619941711426 9.71912956237793 2.917609930038452 11.95180988311768 1.973260045051575 C 14.26307964324951 0.9956799745559692 16.71854972839355 0.5 19.25 0.5 C 21.78145027160645 0.5 24.23691940307617 0.9956799745559692 26.54818916320801 1.973260045051575 C 28.78087043762207 2.917609930038452 30.78611946105957 4.269619941711426 32.50825119018555 5.99174976348877 C 34.23038101196289 7.713880062103271 35.58238983154297 9.71912956237793 36.52674102783203 11.95180988311768 C 37.50431823730469 14.26307964324951 38 16.71854972839355 38 19.25 C 38 21.78145027160645 37.50431823730469 24.23691940307617 36.52674102783203 26.54818916320801 C 35.58238983154297 28.78087043762207 34.23038101196289 30.78611946105957 32.50825119018555 32.50825119018555 C 30.78611946105957 34.23038101196289 28.78087043762207 35.58238983154297 26.54818916320801 36.52674102783203 C 24.23691940307617 37.50431823730469 21.78145027160645 38 19.25 38 Z" stroke="none"/>
      <path d="M 19.25 1 C 14.3752498626709 1 9.792270660400391 2.898330688476562 6.345298767089844 6.345298767089844 C 2.898330688476562 9.792270660400391 1 14.3752498626709 1 19.25 C 1 24.1247501373291 2.898330688476562 28.70772933959961 6.345298767089844 32.15470123291016 C 9.792270660400391 35.60166931152344 14.3752498626709 37.5 19.25 37.5 C 24.1247501373291 37.5 28.70772933959961 35.60166931152344 32.15470123291016 32.15470123291016 C 35.60166931152344 28.70772933959961 37.5 24.1247501373291 37.5 19.25 C 37.5 14.3752498626709 35.60166931152344 9.792270660400391 32.15470123291016 6.345298767089844 C 28.70772933959961 2.898330688476562 24.1247501373291 1 19.25 1 M 19.25 0 C 29.8814811706543 0 38.5 8.618520736694336 38.5 19.25 C 38.5 29.8814811706543 29.8814811706543 38.5 19.25 38.5 C 8.618520736694336 38.5 0 29.8814811706543 0 19.25 C 0 8.618520736694336 8.618520736694336 0 19.25 0 Z" stroke="none" fill="red"/>
    </g>
    <path id="Path_545" data-name="Path 545" d="M16.884,29.352a.625.625,0,0,1-.448-.186.634.634,0,0,1,0-.9L28.268,16.439a.634.634,0,0,1,.9.9L17.332,29.166a.625.625,0,0,1-.448.186Z" transform="translate(343.108 109.415)" fill="#fff"/>
    <path id="Path_546" data-name="Path 546" d="M28.718,29.352a.625.625,0,0,1-.448-.186L16.439,17.335a.634.634,0,0,1,.9-.9L29.166,28.27a.634.634,0,0,1,0,.9.625.625,0,0,1-.448.186Z" transform="translate(343.105 109.415)" fill="#fff"/>
  </g>
</svg>
