<svg xmlns="http://www.w3.org/2000/svg" width="18.601" height="17.712" viewBox="0 0 18.601 17.712">
    <g id="Group_5706" data-name="Group 5706" transform="translate(0.35 0.35)">
        <path id="Path_45516" data-name="Path 45516" d="M142.921,97.274h1.484l.095,0c.03,0,.06,0,.09.008-.064-.007.031.007.036.008a1.478,1.478,0,0,1,.169.045c.028.009.054.019.081.03-.054-.021.048.024.058.029a1.477,1.477,0,0,1,.147.087s.079.058.03.02c.022.017.044.036.065.055a1.515,1.515,0,0,1,.12.12c.019.021.037.043.055.065-.036-.045.029.045.035.054a1.481,1.481,0,0,1,.085.149s.04.09.016.032c.011.027.02.054.03.081a1.487,1.487,0,0,1,.045.169s.017.1.008.036c.005.04.008.08.01.12s0,.058,0,.088v12.2c0,.029,0,.058,0,.088s0,.06-.006.09c-.009.1.011-.058-.006.037a1.461,1.461,0,0,1-.042.171c-.008.028-.018.055-.028.082-.032.088.025-.052-.014.033a1.479,1.479,0,0,1-.1.175c-.015.024-.032.047-.048.07.036-.05-.02.024-.023.027a1.458,1.458,0,0,1-.118.123c-.021.019-.042.038-.064.056-.071.059.046-.033-.029.021a1.476,1.476,0,0,1-.171.1c-.025.013-.051.025-.077.037.057-.026-.03.011-.034.012a1.46,1.46,0,0,1-.168.049c-.029.007-.058.012-.087.017.064-.011-.033,0-.038,0-.04,0-.081,0-.122,0H130.07a1.6,1.6,0,0,1-.181-.011c.064.007-.031-.007-.036-.008-.038-.007-.076-.018-.114-.028s-.055-.017-.083-.027c0,0-.092-.037-.034-.012a1.476,1.476,0,0,1-.152-.079.9.9,0,0,1-.249-.2c-.02-.02-.038-.042-.057-.063,0,0-.06-.077-.023-.027a1.447,1.447,0,0,1-.093-.143c-.014-.025-.027-.05-.04-.076,0,0-.04-.09-.016-.032a1.476,1.476,0,0,1-.062-.193c-.007-.029-.013-.057-.019-.086-.018-.095,0,.06-.006-.037a1.362,1.362,0,0,1-.008-.151V98.45a1.168,1.168,0,0,1,.344-.832c.033-.034.069-.065.1-.1.071-.059-.046.033.029-.021.023-.017.047-.032.071-.047a.927.927,0,0,1,.239-.115.975.975,0,0,1,.407-.064h1.359a.3.3,0,1,0,0-.608h-.733c-.255,0-.514-.013-.768,0a1.8,1.8,0,0,0-1.66,1.793v12.2a1.811,1.811,0,0,0,1.317,1.76,2.827,2.827,0,0,0,.77.061h14.032a1.8,1.8,0,0,0,1.782-1.787V98.512a1.809,1.809,0,0,0-1.053-1.689,2.412,2.412,0,0,0-1-.158H142.92a.3.3,0,1,0,0,.608Z" transform="translate(-128.289 -95.471)" fill="#f98c10" stroke="#f98c10" stroke-width="0.7"/>
        <path id="Path_45517" data-name="Path 45517" d="M293.482,97.376h4.258a.3.3,0,0,0,0-.608h-4.258a.3.3,0,0,0,0,.608Z" transform="translate(-286.627 -95.573)" fill="#f98c10" stroke="#f98c10" stroke-width="0.7"/>
        <path id="Path_45518" data-name="Path 45518" d="M246.96,66.992v3.15a.3.3,0,0,0,.608,0v-3.15a.3.3,0,0,0-.608,0Z" transform="translate(-242.246 -66.688)" fill="#f98c10" stroke="#f98c10" stroke-width="0.7"/>
        <path id="Path_45519" data-name="Path 45519" d="M129.138,223.976h17.25a.3.3,0,1,0,0-.608h-17.25a.3.3,0,1,0,0,.608Z" transform="translate(-128.812 -217.143)" fill="#f98c10" stroke="#f98c10" stroke-width="0.7"/>
        <path id="Path_45520" data-name="Path 45520" d="M222.378,147.416h1.955a.3.3,0,1,0,0-.608h-1.955a.3.3,0,0,0,0,.608Z" transform="translate(-218.348 -143.625)" fill="#f98c10" stroke="#f98c10" stroke-width="0.7"/>
        <path id="Path_45521" data-name="Path 45521" d="M443.84,67.812v3.15a.3.3,0,1,0,.608,0v-3.15a.3.3,0,1,0-.608,0Z" transform="translate(-431.304 -67.476)" fill="#f98c10" stroke="#f98c10" stroke-width="0.7"/>
        <path id="Path_45522" data-name="Path 45522" d="M419.258,147.416h1.955a.3.3,0,0,0,0-.608h-1.955a.3.3,0,0,0,0,.608Z" transform="translate(-407.407 -143.625)" fill="#f98c10" stroke="#f98c10" stroke-width="0.7"/>
        <path id="Path_45523" data-name="Path 45523" d="M203.788,307.1h1.26a.3.3,0,0,0,0-.608h-1.26a.3.3,0,0,0,0,.608Z" transform="translate(-200.497 -296.962)" fill="#f98c10" stroke="#f98c10" stroke-width="0.7"/>
        <path id="Path_45524" data-name="Path 45524" d="M329.028,307.1h1.26a.3.3,0,1,0,0-.608h-1.26a.3.3,0,0,0,0,.608Z" transform="translate(-320.761 -296.962)" fill="#f98c10" stroke="#f98c10" stroke-width="0.7"/>
        <path id="Path_45525" data-name="Path 45525" d="M454.258,307.1h1.26a.3.3,0,1,0,0-.608h-1.26a.3.3,0,1,0,0,.608Z" transform="translate(-441.016 -296.962)" fill="#f98c10" stroke="#f98c10" stroke-width="0.7"/>
        <path id="Path_45526" data-name="Path 45526" d="M203.788,396.786h1.26a.3.3,0,0,0,0-.608h-1.26a.3.3,0,0,0,0,.608Z" transform="translate(-200.497 -383.088)" fill="#f98c10" stroke="#f98c10" stroke-width="0.7"/>
        <path id="Path_45527" data-name="Path 45527" d="M329.028,396.786h1.26a.3.3,0,1,0,0-.608h-1.26a.3.3,0,0,0,0,.608Z" transform="translate(-320.761 -383.088)" fill="#f98c10" stroke="#f98c10" stroke-width="0.7"/>
    </g>
</svg>
