<svg xmlns="http://www.w3.org/2000/svg" width="19.146" height="16.753" viewBox="0 0 19.146 16.753">
  <g id="Group_5609" data-name="Group 5609" transform="translate(-196 -1220.772)">
    <path id="Path_1334" data-name="Path 1334" d="M71.155,41.651a3.7,3.7,0,0,1,.492,1.377,8.063,8.063,0,0,0,.8,2.264,1.128,1.128,0,0,0,.273.323,7.622,7.622,0,0,0,5.556,6.054,1.764,1.764,0,0,0,.834-.068,1.978,1.978,0,0,1,.487-.081,2.131,2.131,0,0,1,.521.1,2.347,2.347,0,0,0,.641.119,1.121,1.121,0,0,0,.2-.017c2.539-.457,4.309-2.443,5.407-6.067a1.044,1.044,0,0,0,.337-.368,8.068,8.068,0,0,0,.8-2.264,3.7,3.7,0,0,1,.492-1.377,3.291,3.291,0,0,0,1.141-2.521,2.968,2.968,0,0,0-1.526-2.013c-1.576-1.051-3.359-2.125-4.639-2.125a1.455,1.455,0,0,0-1.529,1.244,5.274,5.274,0,0,0-3.733-.014,1.453,1.453,0,0,0-1.526-1.23c-1.28,0-3.063,1.074-4.639,2.125a2.968,2.968,0,0,0-1.526,2.014,3.291,3.291,0,0,0,1.141,2.521ZM82.968,35.59c1.271,0,3.4,1.419,4.307,2.024A2.435,2.435,0,0,1,88.539,39.2a2.77,2.77,0,0,1-.987,2.044,3.843,3.843,0,0,0-.634,1.643,7.605,7.605,0,0,1-.732,2.1c-.085.144-.147.175-.158.175s-.058-.016-.13-.091c-.527-.545-1.064-2.615-.993-4.714a3.791,3.791,0,0,0-2.863-3.846A.121.121,0,0,1,82,36.481c.107-.616.406-.891.97-.891Zm-5.694,1.5a.665.665,0,0,0,.247-.138A4.742,4.742,0,0,1,81.68,37a.308.308,0,0,0,.04.016.661.661,0,0,0,.153.07,3.168,3.168,0,0,1,2.435,3.252c-.071,2.1.449,4.414,1.161,5.15a.991.991,0,0,0,.261.2c-1.029,3.261-2.628,5.047-4.878,5.452a1.4,1.4,0,0,1-.57-.088,2.657,2.657,0,0,0-.673-.127,2.383,2.383,0,0,0-.645.1,1.269,1.269,0,0,1-.555.065,6.991,6.991,0,0,1-5.055-5.372.932.932,0,0,0,.325-.227c.712-.736,1.232-3.047,1.161-5.151a3.167,3.167,0,0,1,2.435-3.252ZM70.608,39.2a2.434,2.434,0,0,1,1.264-1.587c.908-.606,3.036-2.025,4.307-2.025.561,0,.86.272.968.874-.067.035-.109.059-.12.066l-.015.011a3.768,3.768,0,0,0-2.771,3.817c.071,2.1-.466,4.169-.993,4.714-.072.075-.118.091-.13.091s-.073-.031-.158-.175a7.608,7.608,0,0,1-.732-2.1,3.842,3.842,0,0,0-.634-1.643,2.769,2.769,0,0,1-.987-2.044Z" transform="translate(126 1185.78)" fill="#fff"/>
    <path id="Path_1335" data-name="Path 1335" d="M280.414,324.761a1.944,1.944,0,0,0,1.657,1.9.3.3,0,0,0,0,.09,1.772,1.772,0,0,1,.025.227c0,.038,0,.079,0,.121a1.2,1.2,0,0,1-.281.831,1.623,1.623,0,0,1-1.474.252.3.3,0,1,0-.1.59,3.93,3.93,0,0,0,.661.061,1.785,1.785,0,0,0,1.347-.49,1.413,1.413,0,0,0,.167-.215,1.493,1.493,0,0,0,.169.207,1.826,1.826,0,0,0,1.353.487,3.771,3.771,0,0,0,.589-.05.3.3,0,0,0-.094-.591,1.6,1.6,0,0,1-1.421-.266,1.27,1.27,0,0,1-.318-.836c0-.04,0-.077,0-.113a1.786,1.786,0,0,1,.014-.228.294.294,0,0,0,0-.077,1.944,1.944,0,0,0,1.657-1.9c0-1.016-.774-1.016-1.105-1.016-.108,0-.224,0-.348.009-.261.01-.568.01-.848,0-.136,0-.267-.009-.391-.009-.346,0-1.265,0-1.265,1.016Zm1.265-.418c.117,0,.241,0,.37.009.294.01.617.01.892,0,.116,0,.224-.009.325-.009.441,0,.507.055.507.418a1.381,1.381,0,0,1-2.761,0c0-.3.06-.418.666-.418Z" transform="translate(-76.819 906.899)" fill="#fff"/>
    <path id="Path_1336" data-name="Path 1336" d="M254.8,220.844a1.047,1.047,0,1,0-1.047-1.047A1.047,1.047,0,0,0,254.8,220.844Zm0-1.5a.449.449,0,1,1-.449.449A.449.449,0,0,1,254.8,219.348Z" transform="translate(-51.472 1008.304)" fill="#fff"/>
    <path id="Path_1337" data-name="Path 1337" d="M386.042,220.844a1.047,1.047,0,1,0-1.047-1.047A1.047,1.047,0,0,0,386.042,220.844Zm0-1.5a.449.449,0,1,1-.449.449A.449.449,0,0,1,386.042,219.348Z" transform="translate(-178.225 1008.304)" fill="#fff"/>
    <path id="Path_1338" data-name="Path 1338" d="M144.978,205.929a.3.3,0,1,1-.3-.3.3.3,0,0,1,.3.3" transform="translate(54.163 1020.976)" fill="#fff"/>
    <path id="Path_1339" data-name="Path 1339" d="M123.144,116.439a.3.3,0,0,0,.2-.519.633.633,0,0,1-.184-.815,2.7,2.7,0,0,1,.535-.461,5.87,5.87,0,0,0,.483-.372.3.3,0,1,0-.392-.452,5.306,5.306,0,0,1-.438.337,3.245,3.245,0,0,0-.657.575.288.288,0,0,0-.023.031,1.233,1.233,0,0,0,.269,1.6.3.3,0,0,0,.2.079Z" transform="translate(75.304 1109.718)" fill="#fff"/>
    <path id="Path_1340" data-name="Path 1340" d="M538.718,205.929a.3.3,0,1,1-.3-.3.3.3,0,0,1,.3.3" transform="translate(-326.115 1020.976)" fill="#fff"/>
    <path id="Path_1341" data-name="Path 1341" d="M525.587,114.644a2.7,2.7,0,0,1,.535.46.634.634,0,0,1-.183.816.3.3,0,1,0,.406.439,1.233,1.233,0,0,0,.269-1.6.3.3,0,0,0-.023-.031,3.243,3.243,0,0,0-.657-.575,5.282,5.282,0,0,1-.438-.337.3.3,0,1,0-.392.452,5.826,5.826,0,0,0,.483.373Z" transform="translate(-313.444 1109.718)" fill="#fff"/>
  </g>
</svg>
