<svg xmlns="http://www.w3.org/2000/svg" width="18.166" height="18.17" viewBox="0 0 18.166 18.17">
    <g id="Group_9924" data-name="Group 9924" transform="translate(2479 -13142.599)">
        <path id="Path_45848" data-name="Path 45848" d="M87.6,15.784H84.758V7.254a3.69,3.69,0,1,0-.568,0v8.53h-5.4a1.4,1.4,0,0,0,.242-1.206l-1-3.424a.852.852,0,0,0,.479-.762V5.849a.284.284,0,0,0-.284-.284h-.284A1.135,1.135,0,0,0,76.81,6.7v.067H75.675V6.7A1.135,1.135,0,0,0,74.54,5.565h-.284a.284.284,0,0,0-.284.284v4.541a.852.852,0,0,0,.479.762l-1,3.435a1.4,1.4,0,0,0,.245,1.2H73.12a.284.284,0,0,1-.284-.284V14.081a.284.284,0,1,0-.568,0V15.5a.841.841,0,0,0,.052.284H70.566a.568.568,0,0,0-.568.568v1.135a.568.568,0,0,0,.568.568H87.6a.568.568,0,0,0,.568-.568V16.352a.568.568,0,0,0-.568-.568ZM81.352,3.579a3.122,3.122,0,1,1,3.406,3.108v-.72l.768-.768h0a.284.284,0,0,0-.4-.4l-.651.651L83.823,4.8h0a.284.284,0,0,0-.4.4l.768.768v.72a3.125,3.125,0,0,1-2.838-3.108ZM74.54,6.133a.568.568,0,0,1,.568.568v.351a.284.284,0,0,0,.284.284h1.7a.284.284,0,0,0,.284-.284V6.7a.568.568,0,0,1,.568-.568v4.258a.284.284,0,0,1-.284.284h-.284V9.255a.851.851,0,0,0-.852-.852h-.568a.851.851,0,0,0-.852.852v1.419h-.284a.284.284,0,0,1-.284-.284Zm1.135,4.541V9.255a.284.284,0,0,1,.284-.284.284.284,0,1,0,.568,0,.284.284,0,0,1,.284.284v1.419Zm-1.524,4.774A.832.832,0,0,1,74,14.736l1.021-3.494h2.452l1.019,3.484h0a.836.836,0,0,1-.152.722.867.867,0,0,1-.689.335h-.224l.238-1.663h0a.284.284,0,0,0-.562-.081l-.249,1.743h-.322V13.8a.284.284,0,0,0-.568,0v1.987h-.322l-.249-1.743a.284.284,0,1,0-.562.081l.238,1.663H74.84a.867.867,0,0,1-.689-.335ZM87.6,17.487H70.566V16.351H87.6Z" transform="translate(-2548.998 13142.714)" fill="#ffd800"/>
    </g>
</svg>
