<svg id="Tick_round_check" data-name="Tick round check" xmlns="http://www.w3.org/2000/svg" width="12.5" height="12.5" viewBox="0 0 12.5 12.5">
    <g id="Group_2927" data-name="Group 2927">
        <g id="Group_2926" data-name="Group 2926">
            <path id="Path_18782" data-name="Path 18782" d="M6.25,0A6.25,6.25,0,1,0,12.5,6.25,6.257,6.257,0,0,0,6.25,0Zm0,11.532A5.282,5.282,0,1,1,11.532,6.25,5.288,5.288,0,0,1,6.25,11.532Z" fill="#f98c10"/>
        </g>
    </g>
    <g id="Group_2929" data-name="Group 2929" transform="translate(3.225 3.951)">
        <g id="Group_2928" data-name="Group 2928">
            <path id="Path_18783" data-name="Path 18783" d="M137.972,161.949a.484.484,0,0,0-.684.033l-2.953,3.252-1.427-1.45a.484.484,0,1,0-.69.679L134,166.278a.483.483,0,0,0,.345.145h.009a.484.484,0,0,0,.349-.159l3.3-3.631A.484.484,0,0,0,137.972,161.949Z" transform="translate(-132.079 -161.824)" fill="#f98c10"/>
        </g>
    </g>
</svg>
