<svg id="Group_5724" data-name="Group 5724" xmlns="http://www.w3.org/2000/svg" width="21.013" height="14.958" viewBox="0 0 21.013 14.958">
    <path id="Path_45533" data-name="Path 45533" d="M21.554,11H4.459A1.961,1.961,0,0,0,2.5,12.959V24a1.961,1.961,0,0,0,1.959,1.959h17.1A1.961,1.961,0,0,0,23.513,24V12.959A1.961,1.961,0,0,0,21.554,11Zm.89,13a.89.89,0,0,1-.89.89H4.459a.89.89,0,0,1-.89-.89V12.959a.89.89,0,0,1,.89-.89h17.1a.89.89,0,0,1,.89.89Zm-.869-10.884a.534.534,0,0,1,0,.756L16.96,18.486,21.4,23.095a.534.534,0,1,1-.769.742L16.2,19.242l-1.311,1.31a2.673,2.673,0,0,1-3.777,0l-1.309-1.31L5.378,23.836a.534.534,0,1,1-.769-.742l4.445-4.609L4.437,13.871a.534.534,0,0,1,.756-.756l6.68,6.682a1.6,1.6,0,0,0,2.267,0l6.68-6.682A.534.534,0,0,1,21.576,13.115Z" transform="translate(-2.5 -11)" fill="#f98c10"/>
</svg>
