<svg id="facebook-logo" xmlns="http://www.w3.org/2000/svg" width="12.446" height="23.02" viewBox="0 0 12.446 23.02">
    <path id="Path_19" data-name="Path 19" d="M34.054,0,31.069,0c-3.354,0-5.521,2.224-5.521,5.665V8.277h-3a.469.469,0,0,0-.469.47v3.785a.469.469,0,0,0,.469.469h3v9.55a.469.469,0,0,0,.469.469h3.916a.469.469,0,0,0,.469-.469V13h3.509a.469.469,0,0,0,.469-.469V8.747a.47.47,0,0,0-.47-.47H30.4V6.063c0-1.064.254-1.6,1.64-1.6h2.011a.469.469,0,0,0,.469-.469V.474A.47.47,0,0,0,34.054,0Z" transform="translate(-22.077)" fill="#3b5998"/>
</svg>
