<svg xmlns="http://www.w3.org/2000/svg" width="19.014" height="19.028" viewBox="0 0 19.014 19.028">
    <g id="Group_9922" data-name="Group 9922" transform="translate(2358.418 -13168.032)">
        <path id="Path_45836" data-name="Path 45836" d="M79.366,385.946l.11-.329H82.09l.427.853v1.294h.613V386.4a.306.306,0,0,0-.032-.137l-.433-.867.38-.76a.306.306,0,0,0,.032-.13l.053-2.364a.307.307,0,0,0-.477-.262l-.676.45H80.407l-.676-.45a.307.307,0,0,0-.477.255v2.208l-.486,1.458a.307.307,0,0,0-.016.1v1.868h.613Zm.486-1.458a.3.3,0,0,0,.016-.1v-1.685l.276.184a.307.307,0,0,0,.17.052H82.07a.307.307,0,0,0,.17-.052l.263-.175-.038,1.707-.292.583H79.68Z" transform="translate(-2437.171 12799.282)" fill="#419625"/>
        <path id="Path_45837" data-name="Path 45837" d="M465.967,377.009a.56.56,0,0,0-.369-.412l-.993-.331h0a.3.3,0,0,0-.1-.016h-2.258a.3.3,0,0,0-.1.016l-.993.331h0a.566.566,0,0,0-.372.427l-.221,1.365h0a.307.307,0,0,0,.151.315l.724.413v.754l-.595,1.19h0a.306.306,0,0,0-.032.137v1.185h.613v-1.112l.364-.728h3.183l.352.681-.052,1.145.613.028.056-1.227h0a.3.3,0,0,0-.034-.155l-.593-1.147v-.751l.724-.413a.307.307,0,0,0,.151-.315Zm-1.109,1.665a.306.306,0,0,0-.155.266v.99h-2.649v-.99a.306.306,0,0,0-.155-.266l-.694-.4.179-1.11.914-.3h2.159l.913.3.18,1.11Z" transform="translate(-2805.599 12804.663)" fill="#419625"/>
        <path id="Path_45838" data-name="Path 45838" d="M199.248,11.206a6.554,6.554,0,0,0,1.287-.128.307.307,0,0,0,.246-.3V9.058a.307.307,0,0,0-.367-.3,5.927,5.927,0,0,1-2.333,0,.307.307,0,0,0-.367.3v3.067h-3.68a.307.307,0,0,0-.266.155l-1.227,2.147a.307.307,0,0,0,.266.459h.613v5.52a.307.307,0,0,0,.307.307h8.587a.307.307,0,0,0,.307-.307v-5.52h.613a.307.307,0,0,0,.282-.427l-.92-2.147a.307.307,0,0,0-.282-.186h-3.987v-.993a6.511,6.511,0,0,0,.92.073Zm-.92-1.784h0a6.534,6.534,0,0,0,1.84,0v1.1a5.924,5.924,0,0,1-1.84,0Zm.307,10.677h-1.227v-.92a.613.613,0,1,1,1.227,0Zm3.374,0h-2.76v-.92a1.227,1.227,0,1,0-2.453,0v.92h-2.76V14.885h7.974Zm.1-7.36.657,1.533h-9.434l.876-1.533Z" transform="translate(-2546.933 13159.28)" fill="#419625"/>
        <path id="Path_45839" data-name="Path 45839" d="M254.057,203.09h1.227a.307.307,0,0,0,.307-.307v-1.227a.307.307,0,0,0-.307-.307h-1.227a.307.307,0,0,0-.307.307v1.227a.307.307,0,0,0,.307.307Zm.307-1.227h.613v.613h-.613Z" transform="translate(-2606.035 12973.529)" fill="#419625"/>
        <path id="Path_45840" data-name="Path 45840" d="M324.057,203.09h1.227a.307.307,0,0,0,.307-.307v-1.227a.307.307,0,0,0-.307-.307h-1.227a.307.307,0,0,0-.307.307v1.227a.307.307,0,0,0,.307.307Zm.307-1.227h.613v.613h-.613Z" transform="translate(-2673.581 12973.529)" fill="#419625"/>
        <path id="Path_45841" data-name="Path 45841" d="M394.057,203.09h1.227a.307.307,0,0,0,.307-.307v-1.227a.307.307,0,0,0-.307-.307h-1.227a.307.307,0,0,0-.307.307v1.227a.307.307,0,0,0,.307.307Zm.307-1.227h.613v.613h-.613Z" transform="translate(-2741.128 12973.529)" fill="#419625"/>
        <path id="Path_45842" data-name="Path 45842" d="M212.95,367.352l-.307-.005a3.867,3.867,0,0,1-1.982,3.414,3.708,3.708,0,0,1-2.548.28l-.142.6h0a4.626,4.626,0,0,0,1.063.125,4.107,4.107,0,0,0,1.91-.458,4.269,4.269,0,0,0,2.005-2.322,4.27,4.27,0,0,0,2.005,2.322,4.1,4.1,0,0,0,1.912.457h.075l-.01-.613a3.541,3.541,0,0,1-1.693-.387,3.867,3.867,0,0,1-1.982-3.414Z" transform="translate(-2561.862 12813.255)" fill="#419625"/>
        <path id="Path_45843" data-name="Path 45843" d="M124.914,433.1h0a.212.212,0,0,0-.23.188v.084a.212.212,0,0,0,.23.188h0a.212.212,0,0,0,.23-.188v-.084A.212.212,0,0,0,124.914,433.1Z" transform="translate(-2481.492 12749.811)" fill="#419625"/>
        <path id="Path_45844" data-name="Path 45844" d="M160.714,433.1h0a.212.212,0,0,0-.23.188v.084a.212.212,0,0,0,.23.188h0a.212.212,0,0,0,.23-.188v-.084A.212.212,0,0,0,160.714,433.1Z" transform="translate(-2516.037 12749.811)" fill="#419625"/>
        <path id="Path_45845" data-name="Path 45845" d="M512.108,423.356a.212.212,0,0,0-.23.188v.084a.235.235,0,0,0,.46,0v-.084A.212.212,0,0,0,512.108,423.356Z" transform="translate(-2855.115 12759.208)" fill="#419625"/>
        <path id="Path_45846" data-name="Path 45846" d="M555.054,423.356h0a.212.212,0,0,0-.23.188v.084a.212.212,0,0,0,.23.188h0a.212.212,0,0,0,.23-.188v-.084A.212.212,0,0,0,555.054,423.356Z" transform="translate(-2896.556 12759.208)" fill="#419625"/>
        <path id="Path_45847" data-name="Path 45847" d="M531.529,453.609h-.112a.248.248,0,0,0-.251.245h0a.248.248,0,0,0,.251.245h.112a.248.248,0,0,0,.251-.245h0A.248.248,0,0,0,531.529,453.609Z" transform="translate(-2873.728 12730.016)" fill="#419625"/>
    </g>
</svg>
