<svg id="Group_2566" data-name="Group 2566" xmlns="http://www.w3.org/2000/svg" width="15.561" height="14.129" viewBox="0 0 15.561 14.129">
    <path id="Path_317" data-name="Path 317" d="M.6,6.15a.369.369,0,0,1-.44-.594L7.569.083a.37.37,0,0,1,.446.005L10.4,1.853V.844a.371.371,0,0,1,.37-.37H13.4a.371.371,0,0,1,.37.37v3.5l1.644,1.214a.369.369,0,0,1-.44.594L7.788.839.6,6.15ZM11.145,2.4l1.89,1.4V1.214h-1.89Z" transform="translate(-0.007 -0.011)" fill="#f98c10"/>
    <path id="Path_318" data-name="Path 318" d="M48.191,141.37a.37.37,0,1,1,.741,0v7.147a.371.371,0,0,1-.37.37H36.98a.371.371,0,0,1-.37-.37V141.37a.37.37,0,1,1,.741,0v6.777h3.53v-5.393a.371.371,0,0,1,.37-.37H44.29a.371.371,0,0,1,.37.37v5.393h3.53Zm-6.57,6.777h2.3v-5.023h-2.3Z" transform="translate(-34.99 -134.759)" fill="#f98c10"/>
</svg>
