<svg id="Group_794" data-name="Group 794" xmlns="http://www.w3.org/2000/svg" width="25.809" height="23.434" viewBox="0 0 25.809 23.434">
  <path id="Path_317" data-name="Path 317" d="M.984,10.194a.613.613,0,1,1-.729-.985L12.548.13a.614.614,0,0,1,.74.009l3.962,2.927V1.392a.616.616,0,0,1,.614-.614h4.362a.616.616,0,0,1,.614.614V7.2l2.727,2.014a.613.613,0,0,1-.729.985L12.913,1.384.984,10.194ZM18.479,3.972l3.135,2.316V2.006H18.479Z" transform="translate(-0.007 -0.011)" fill="#419625"/>
  <path id="Path_318" data-name="Path 318" d="M55.818,141.614a.614.614,0,1,1,1.228,0v11.854a.615.615,0,0,1-.614.614H37.224a.615.615,0,0,1-.614-.614V141.614a.614.614,0,1,1,1.228,0v11.241h5.855V143.91a.616.616,0,0,1,.614-.615h5.041a.616.616,0,0,1,.614.615v8.945h5.855Zm-10.9,11.241h3.813v-8.331H44.921Z" transform="translate(-33.923 -130.649)" fill="#419625"/>
</svg>
