<svg id="instagram_colour_3_" data-name="instagram colour (3)" xmlns="http://www.w3.org/2000/svg" xmlns:xlink="http://www.w3.org/1999/xlink" width="23.011" height="23.011" viewBox="0 0 23.011 23.011">
    <defs>
        <linearGradient id="linear-gradient" x1="0.084" y1="0.916" x2="0.916" y2="0.084" gradientUnits="objectBoundingBox">
            <stop offset="0" stop-color="#ffd600"/>
            <stop offset="0.5" stop-color="#ff0100"/>
            <stop offset="1" stop-color="#d800b9"/>
        </linearGradient>
        <linearGradient id="linear-gradient-2" x1="0.146" y1="0.854" x2="0.854" y2="0.146" gradientUnits="objectBoundingBox">
            <stop offset="0" stop-color="#ff6400"/>
            <stop offset="0.5" stop-color="#ff0100"/>
            <stop offset="1" stop-color="#fd0056"/>
        </linearGradient>
        <linearGradient id="linear-gradient-3" x1="0.146" y1="0.854" x2="0.854" y2="0.146" gradientUnits="objectBoundingBox">
            <stop offset="0" stop-color="#f30072"/>
            <stop offset="1" stop-color="#e50097"/>
        </linearGradient>
    </defs>
    <path id="Path_5721" data-name="Path 5721" d="M22.942,6.762a8.447,8.447,0,0,0-.535-2.793A5.639,5.639,0,0,0,21.08,1.931,5.641,5.641,0,0,0,19.042.6,8.445,8.445,0,0,0,16.249.069C15.022.013,14.63,0,11.505,0S7.989.013,6.762.069A8.448,8.448,0,0,0,3.969.6,5.639,5.639,0,0,0,1.931,1.931,5.64,5.64,0,0,0,.6,3.969,8.446,8.446,0,0,0,.069,6.762C.013,7.989,0,8.381,0,11.505s.013,3.517.07,4.744A8.445,8.445,0,0,0,.6,19.042,5.638,5.638,0,0,0,1.931,21.08a5.637,5.637,0,0,0,2.038,1.327,8.442,8.442,0,0,0,2.793.535c1.227.056,1.619.069,4.744.069s3.517-.013,4.744-.069a8.443,8.443,0,0,0,2.793-.535,5.882,5.882,0,0,0,3.365-3.365,8.444,8.444,0,0,0,.535-2.793c.056-1.227.069-1.619.069-4.744S23,7.989,22.942,6.762Zm-2.071,9.393a6.366,6.366,0,0,1-.4,2.136,3.81,3.81,0,0,1-2.184,2.184,6.366,6.366,0,0,1-2.136.4c-1.213.055-1.577.067-4.649.067s-3.436-.012-4.649-.067a6.368,6.368,0,0,1-2.136-.4A3.566,3.566,0,0,1,3.4,19.614a3.564,3.564,0,0,1-.861-1.323,6.366,6.366,0,0,1-.4-2.136c-.055-1.213-.067-1.577-.067-4.649s.012-3.436.067-4.649a6.37,6.37,0,0,1,.4-2.136A3.567,3.567,0,0,1,3.4,3.4,3.562,3.562,0,0,1,4.72,2.536a6.365,6.365,0,0,1,2.136-.4c1.213-.055,1.577-.067,4.649-.067h0c3.072,0,3.436.012,4.649.067a6.367,6.367,0,0,1,2.136.4,3.567,3.567,0,0,1,1.323.861,3.562,3.562,0,0,1,.861,1.323,6.36,6.36,0,0,1,.4,2.136c.055,1.213.067,1.577.067,4.649s-.012,3.436-.067,4.649Zm0,0" transform="translate(0 0)" fill="url(#linear-gradient)"/>
    <path id="Path_5722" data-name="Path 5722" d="M130.447,124.539a5.908,5.908,0,1,0,5.908,5.908A5.908,5.908,0,0,0,130.447,124.539Zm0,9.744a3.835,3.835,0,1,1,3.835-3.835A3.835,3.835,0,0,1,130.447,134.283Zm0,0" transform="translate(-118.942 -118.942)" fill="url(#linear-gradient-2)"/>
    <path id="Path_5723" data-name="Path 5723" d="M364.691,90.006a1.381,1.381,0,1,1-1.381-1.381A1.381,1.381,0,0,1,364.691,90.006Zm0,0" transform="translate(-345.663 -84.642)" fill="url(#linear-gradient-3)"/>
</svg>
