<svg xmlns="http://www.w3.org/2000/svg" width="10.214" height="13" viewBox="0 0 10.214 13">
    <g id="map2" transform="translate(-5 -2)">
        <path id="Path_845" data-name="Path 845" d="M10.107,15a.464.464,0,0,1-.311-.121C9.6,14.7,5,10.524,5,7.107a5.107,5.107,0,0,1,10.214,0c0,3.417-4.6,7.6-4.8,7.772a.464.464,0,0,1-.311.121Zm0-12.071A4.179,4.179,0,0,0,5.929,7.107c0,2.535,3.162,5.8,4.179,6.788,1.017-.984,4.179-4.253,4.179-6.788a4.179,4.179,0,0,0-4.179-4.179Z" fill="#b9b9b9"/>
        <path id="Path_846" data-name="Path 846" d="M13.321,12.643a2.321,2.321,0,1,1,2.321-2.321A2.321,2.321,0,0,1,13.321,12.643Zm0-3.714a1.393,1.393,0,1,0,1.393,1.393A1.393,1.393,0,0,0,13.321,8.929Z" transform="translate(-3.214 -3.214)" fill="#b9b9b9"/>
    </g>
</svg>
