<svg xmlns="http://www.w3.org/2000/svg" width="15.077" height="13.184" viewBox="0 0 15.077 13.184">
  <g id="love_heart_1814104" data-name="love heart_1814104" transform="translate(-8.1 -11.1)">
    <g id="Icon-Heart" transform="translate(8.1 11.1)">
      <path id="Fill-18" d="M-162.362-205.716l-.252-.221c-5.74-4.668-7.286-6.308-7.286-8.989a3.978,3.978,0,0,1,3.974-3.974,4.555,4.555,0,0,1,3.564,1.829A4.555,4.555,0,0,1-158.8-218.9a3.978,3.978,0,0,1,3.974,3.974c0,2.681-1.546,4.321-7.286,8.989l-.252.221Zm-3.564-12.364a3.163,3.163,0,0,0-3.154,3.154c0,2.3,1.451,3.816,6.718,8.138,5.267-4.321,6.718-5.835,6.718-8.138a3.163,3.163,0,0,0-3.154-3.154,3.937,3.937,0,0,0-3.091,1.7l-.473.536-.473-.536a3.937,3.937,0,0,0-3.091-1.7Z" transform="translate(169.9 218.9)" fill="#202020"/>
    </g>
  </g>
</svg>
