<svg xmlns="http://www.w3.org/2000/svg" width="18.166" height="18.228" viewBox="0 0 18.166 18.228">
    <g id="Group_9930" data-name="Group 9930" transform="translate(2542.924 -13272.276)">
        <path id="Path_45827" data-name="Path 45827" d="M549.824,116.371a.357.357,0,0,0,.036.273.371.371,0,0,0,.222.171.419.419,0,0,0,.095.011.363.363,0,0,0,.35-.27.364.364,0,1,0-.7-.186Z" transform="translate(-3075.298 13158.466)" fill="#155d84"/>
        <path id="Path_45828" data-name="Path 45828" d="M491.094,87.5a1.094,1.094,0,1,0,1.094,1.094A1.1,1.1,0,0,0,491.094,87.5Zm0,1.458a.365.365,0,1,1,.365-.365A.366.366,0,0,1,491.094,88.958Z" transform="translate(-3017.978 13185.87)" fill="#155d84"/>
        <path id="Path_45829" data-name="Path 45829" d="M325.939,65.625a2.173,2.173,0,0,0,.365-.033v3.314a.383.383,0,0,0,.106.259l.654.654-1.017,1.017a.364.364,0,0,0-.107.258v6.562a.364.364,0,0,0,.107.258l1.458,1.458a.364.364,0,0,0,.622-.258V72.338l.729-.729.729.729v6.775a.365.365,0,0,0,.622.258l1.458-1.458a.364.364,0,0,0,.107-.258V71.093a.364.364,0,0,0-.107-.258l-1.017-1.017.654-.654a.367.367,0,0,0,.106-.259V65.592a2.189,2.189,0,0,0,.365.033,2.166,2.166,0,0,0,1.075-.284.364.364,0,0,0,.138-.5.374.374,0,0,0-.5-.138,1.457,1.457,0,1,1,.532-2.023.369.369,0,0,0,.5.124.341.341,0,0,0,.164-.222.352.352,0,0,0-.04-.277,2.188,2.188,0,0,0-4.061,1.13v4.221l-.149.153h-1.159l-.15-.153V63.438a2.187,2.187,0,1,0-2.187,2.187Zm1.565,6.3a.364.364,0,0,0-.107.258v6.046l-.729-.729v-6.26L327.912,70h1.521Zm3.539-.685V77.5l-.729.729V72.187a.364.364,0,0,0-.107-.258l-.836-.836.76-.761Zm-3.54-3.173.365.365a.36.36,0,0,0,.259.106h1.458a.36.36,0,0,0,.259-.106l.365-.365a.36.36,0,0,0,.106-.259V65.064a2.184,2.184,0,0,0,.365.265v3.427l-.518.514h-2.614l-.514-.514V65.33a2.2,2.2,0,0,0,.365-.265v2.748A.376.376,0,0,0,327.5,68.071Zm-1.564-6.091a1.458,1.458,0,1,1-1.458,1.458A1.462,1.462,0,0,1,325.939,61.98Z" transform="translate(-2858.656 13211.026)" fill="#155d84"/>
        <path id="Path_45830" data-name="Path 45830" d="M351.094,89.687A1.094,1.094,0,1,0,350,88.594,1.1,1.1,0,0,0,351.094,89.687Zm0-1.458a.365.365,0,1,1-.365.365A.366.366,0,0,1,351.094,88.229Z" transform="translate(-2883.811 13185.87)" fill="#155d84"/>
        <path id="Path_45831" data-name="Path 45831" d="M133.434,79.468a2.189,2.189,0,0,0,2.187-2.187V73.056l.149-.149h1.156l.153.153v4.221a2.2,2.2,0,1,0,1.823-2.154V71.813a.36.36,0,0,0-.106-.259l-.653-.653,1.017-1.017a.36.36,0,0,0,.106-.259V63.064a.36.36,0,0,0-.106-.259L137.7,61.347a.372.372,0,0,0-.4-.076.356.356,0,0,0-.226.335v4.262a.365.365,0,1,0,.729,0V62.484l.729.729v6.263l-1.246,1.243h-1.518l.834-.836h0l.916-.917a.363.363,0,0,0,0-.514.37.37,0,0,0-.514,0l-.659.659-.579-.579.471-.471a.364.364,0,0,0,0-.515l-.471-.471.471-.471a.364.364,0,0,0,0-.515l-.471-.471.471-.471a.364.364,0,0,0,0-.515l-.471-.471.471-.471a.364.364,0,0,0,0-.515l-.622-.622v-.943a.364.364,0,0,0-.622-.258l-1.458,1.458a.364.364,0,0,0-.107.258v6.562a.364.364,0,0,0,.107.258l1.017,1.017-.654.654a.383.383,0,0,0-.106.259v3.314a2.186,2.186,0,1,0-.365,4.342Zm5.833-3.645a1.458,1.458,0,1,1-1.458,1.458A1.462,1.462,0,0,1,139.267,75.823Zm-5.1-6.348v-6.26l.729-.729V62.7a.364.364,0,0,0,.107.258l.471.471L135,63.9a.364.364,0,0,0,0,.515l.471.471-.471.471a.364.364,0,0,0,0,.515l.471.471-.471.471a.364.364,0,0,0,0,.515l.471.471-.471.471a.364.364,0,0,0,0,.515l.835.836-.761.76Zm.365,2.487.514-.514h2.617l.514.514v3.427a2.2,2.2,0,0,0-.365.265V72.906a.36.36,0,0,0-.106-.259l-.365-.365a.383.383,0,0,0-.259-.106h-1.458a.376.376,0,0,0-.259.106l-.365.365a.383.383,0,0,0-.106.259v2.748a2.185,2.185,0,0,0-.365-.265Zm-1.094,3.861a1.458,1.458,0,1,1-1.458,1.458A1.462,1.462,0,0,1,133.434,75.823Z" transform="translate(-2674.171 13211.035)" fill="#155d84"/>
        <path id="Path_45832" data-name="Path 45832" d="M158.594,422.187a1.094,1.094,0,1,0-1.094-1.094A1.1,1.1,0,0,0,158.594,422.187Zm0-1.458a.365.365,0,1,1-.365.365A.366.366,0,0,1,158.594,420.729Z" transform="translate(-2699.331 12867.223)" fill="#155d84"/>
        <path id="Path_45833" data-name="Path 45833" d="M298.594,422.187a1.094,1.094,0,1,0-1.094-1.094A1.1,1.1,0,0,0,298.594,422.187Zm0-1.458a.365.365,0,1,1-.365.365A.366.366,0,0,1,298.594,420.729Z" transform="translate(-2833.498 12867.223)" fill="#155d84"/>
        <path id="Path_45834" data-name="Path 45834" d="M271.979,198.9a.365.365,0,1,0-.365.365A.363.363,0,0,0,271.979,198.9Z" transform="translate(-2808.342 13079.457)" fill="#155d84"/>
    </g>
</svg>
