<svg xmlns="http://www.w3.org/2000/svg" width="8.144" height="14.372" viewBox="0 0 8.144 14.372">
    <path id="Path_45663" data-name="Path 45663" d="M201.271,17.64a.239.239,0,0,0,.037.256l3.055,3.526v.389h-2.156a.24.24,0,0,0-.24.24v9.582a.24.24,0,0,0,.24.24h6.228a.24.24,0,0,0,.24-.24V22.051a.24.24,0,0,0-.24-.24H206.28v-.389l3.055-3.526a.24.24,0,0,0-.181-.4h-1.916a.24.24,0,0,0-.184.086l-1.126,1.351h-1.212l-1.126-1.351a.24.24,0,0,0-.184-.086h-1.916a.24.24,0,0,0-.218.14Zm5.248,5.609a.24.24,0,0,1,0,.479h-2.4a.24.24,0,0,1,0-.479Zm-.719-.479h-.958V21.332h.958Zm2.4-.479v9.1h-5.749v-9.1h1.916v.479h-.24a.719.719,0,1,0,0,1.437h2.4a.719.719,0,1,0,0-1.437h-.24v-.479Zm-.846-4.312h1.28l-2.35,2.711V19.263Zm-2.507,1.437h.958v1.437h-.958Zm-1.549-1.437,1.07,1.284V20.69l-2.35-2.711Z" transform="translate(-201.249 -17.5)" fill="#f98c10"/>
</svg>
