<svg xmlns="http://www.w3.org/2000/svg" width="16.09" height="28.394" viewBox="0 0 16.09 28.394">
  <g id="noun-membership-2287534" transform="translate(-201.249 -17.5)">
    <path id="Path_45662" data-name="Path 45662" d="M281.824,279.313a2.643,2.643,0,0,0-3.158.245,2.484,2.484,0,0,0,.016,3.553l2.839,2.366a.474.474,0,0,0,.606,0l2.855-2.38h0a2.486,2.486,0,0,0,0-3.539,2.644,2.644,0,0,0-3.158-.245Zm2.536,3.07-2.536,2.115-2.52-2.1a1.543,1.543,0,0,1,0-2.14,1.689,1.689,0,0,1,2.2,0,.474.474,0,0,0,.638,0,1.688,1.688,0,0,1,2.2,0,1.547,1.547,0,0,1,.016,2.126Z" transform="translate(-72.529 -247.265)"/>
    <path id="Path_45663" data-name="Path 45663" d="M201.292,17.777a.473.473,0,0,0,.073.506l6.036,6.965v.769h-4.259a.473.473,0,0,0-.473.473V45.42a.473.473,0,0,0,.473.473h12.3a.473.473,0,0,0,.473-.473V26.491a.473.473,0,0,0-.473-.473h-4.259v-.769l6.036-6.965a.473.473,0,0,0-.358-.783H213.08a.473.473,0,0,0-.363.17l-2.225,2.67h-2.4l-2.224-2.67a.474.474,0,0,0-.364-.17h-3.786a.473.473,0,0,0-.431.277ZM211.66,28.857a.473.473,0,0,1,0,.946h-4.732a.473.473,0,1,1,0-.946Zm-1.42-.946h-1.893V25.071h1.893Zm4.732-.946V44.947H203.615V26.964H207.4v.946h-.473a1.42,1.42,0,1,0,0,2.839h4.732a1.42,1.42,0,1,0,0-2.839h-.473v-.946ZM213.3,18.446h2.528L211.187,23.8V20.984Zm-4.954,2.839h1.893v2.839h-1.893Zm-3.061-2.839,2.114,2.537V23.8l-4.642-5.357Z" transform="translate(0)"/>
    <path id="Path_45664" data-name="Path 45664" d="M262.5,420.473v3.786a.473.473,0,0,0,.473.473h8.518a.473.473,0,0,0,.473-.473v-3.786a.473.473,0,0,0-.473-.473h-8.518A.473.473,0,0,0,262.5,420.473Zm.946.473h7.572v2.839h-7.572Z" transform="translate(-57.938 -380.732)"/>
    <path id="Path_45665" data-name="Path 45665" d="M297.5,455h.946v.947H297.5Z" transform="translate(-91.045 -413.839)"/>
    <path id="Path_45666" data-name="Path 45666" d="M332.5,455h1.893v.947H332.5Z" transform="translate(-124.152 -413.839)"/>
    <path id="Path_45667" data-name="Path 45667" d="M385,455h.946v.947H385Z" transform="translate(-173.813 -413.839)"/>
  </g>
</svg>
