<svg id="Component_2_1" data-name="Component 2 – 1" xmlns="http://www.w3.org/2000/svg" width="16.715" height="21.6" viewBox="0 0 16.715 21.6">
  <path id="Path_30" data-name="Path 30" d="M26.15,20.967V14.309A7.147,7.147,0,0,0,20.9,7.431V6.884a1.886,1.886,0,1,0-3.771,0v.547a7.147,7.147,0,0,0-5.254,6.879v6.658a1.525,1.525,0,0,0,.307,3.018H16a3.041,3.041,0,0,0,6.021,0h3.822a1.525,1.525,0,0,0,.307-3.018ZM17.988,6.884a1.022,1.022,0,1,1,2.043,0v.368a6.426,6.426,0,0,0-2.043,0V6.884Zm-5.254,7.426a6.276,6.276,0,1,1,12.551,0v6.627H12.734ZM19.01,25.734a2.184,2.184,0,0,1-2.137-1.749h4.274A2.184,2.184,0,0,1,19.01,25.734Zm6.833-2.613H12.177a.661.661,0,0,1,0-1.321H25.843a.661.661,0,0,1,0,1.321Z" transform="translate(-10.652 -4.998)" fill="#352425"/>
</svg>
