<svg id="Group_5742" data-name="Group 5742" xmlns="http://www.w3.org/2000/svg" width="11.766" height="15.513" viewBox="0 0 11.766 15.513">
    <path id="Path_45534" data-name="Path 45534" d="M.167,2.4A.3.3,0,0,1,.3,2.214a.307.307,0,0,1,.231-.037.306.306,0,0,1,.226.369,5.616,5.616,0,0,0-.134.779,3.407,3.407,0,0,0,0,.668,2.114,2.114,0,0,0,.129.554,1.474,1.474,0,0,0,.747.812,2.1,2.1,0,0,0,.521.172,2.636,2.636,0,0,0,.422.047c.109,0,.179,0,.188,0h4.6a.933.933,0,0,0-.882-.627H4.8a.306.306,0,1,1,0-.612A1.862,1.862,0,0,0,4.8.612.306.306,0,1,1,4.8,0,2.469,2.469,0,0,1,6.773,3.965a2.508,2.508,0,0,1-.355.379A1.548,1.548,0,0,1,7.779,5.3a1.528,1.528,0,0,1,.116.585.306.306,0,0,1-.306.306H2.643l-.032,0H2.505a3.1,3.1,0,0,1-.374-.023,3.017,3.017,0,0,1-.507-.106,2.485,2.485,0,0,1-.554-.242,2.093,2.093,0,0,1-.517-.433,2.115,2.115,0,0,1-.346-.562,2.634,2.634,0,0,1-.18-.686A3.888,3.888,0,0,1,.014,3.33,6.085,6.085,0,0,1,.167,2.4Z" transform="translate(0 9.322)" fill="#f98c10"/>
    <path id="Path_45535" data-name="Path 45535" d="M7.04,3.5a1.118,1.118,0,0,1,.11-.071c.039-.022.08-.043.123-.063s.088-.04.135-.059l.146-.06c.115-.046.24-.1.371-.158a3.152,3.152,0,0,0,.405-.226,2.627,2.627,0,0,0,.411-.337,2.841,2.841,0,0,0,.388-.491.7.7,0,0,0,.067-.14.754.754,0,0,0,.036-.151.649.649,0,0,0,0-.147.446.446,0,0,0-.032-.13A.286.286,0,0,0,9.172,1.4a.237.237,0,0,0-.045-.046.258.258,0,0,0-.057-.033A.358.358,0,0,0,9,1.3a.4.4,0,0,0-.09-.007.83.83,0,0,0-.1.009c-.036.005-.073.012-.112.02l-.118.026-.105.024L8.366,1.4c-.036.006-.073.012-.11.017s-.075.007-.113.009a2.532,2.532,0,0,1-.26-.006C7.8,1.409,7.708,1.4,7.62,1.383a2.673,2.673,0,0,1-.261-.059,2.479,2.479,0,0,1-.251-.085L7.023,1.2l-.087-.036-.088-.037-.089-.037C6.543,1,6.32.91,6.1.829A4.011,4.011,0,0,0,5.424.644,1.849,1.849,0,0,0,4.78.636,1.262,1.262,0,0,0,4.2.9a1.467,1.467,0,0,0-.393.547,2.744,2.744,0,0,0-.2.737,3.118,3.118,0,0,0-.011.77,1.874,1.874,0,0,0,.181.644.454.454,0,0,0,.111.136.592.592,0,0,0,.161.1.743.743,0,0,0,.2.048.843.843,0,0,0,.216,0A.8.8,0,0,0,4.6,3.84a.708.708,0,0,0,.173-.087.61.61,0,0,0,.161-.164.707.707,0,0,0,.1-.265,1.214,1.214,0,0,0,.006-.33,2.3,2.3,0,0,0-.083-.415,2.275,2.275,0,0,0-.172-.426,1.533,1.533,0,0,0-.262-.363.306.306,0,1,1,.433-.433,2.118,2.118,0,0,1,.349.472,2.888,2.888,0,0,1,.233.556,2.858,2.858,0,0,1,.112.562,1.8,1.8,0,0,1-.015.489,1.341,1.341,0,0,1-.135.387,1.242,1.242,0,0,1-.56.536,1.376,1.376,0,0,1-.395.12,1.476,1.476,0,0,1-.209.017,1.42,1.42,0,0,1-.2-.013,1.362,1.362,0,0,1-.193-.041,1.3,1.3,0,0,1-.181-.067A4.054,4.054,0,0,1,3.6,5.06a4.923,4.923,0,0,1-.262.633c-.1.2-.213.4-.334.6s-.248.386-.379.577c-.38.553-.733,1.085-1.033,1.608A8.613,8.613,0,0,0,.87,10.027a4.746,4.746,0,0,0-.262,1.567,4.461,4.461,0,0,0,.347,1.653.306.306,0,0,1-.168.4l-.029.01-.029.007-.029,0H.671a.306.306,0,0,1-.283-.191,5.037,5.037,0,0,1-.387-2A5.641,5.641,0,0,1,.35,9.654,9.557,9.557,0,0,1,1.152,8c.311-.522.65-1.016.969-1.481.142-.207.28-.414.408-.626a5.906,5.906,0,0,0,.343-.648,3.872,3.872,0,0,0,.236-.691A3.27,3.27,0,0,0,3.2,3.8a2.642,2.642,0,0,1-.214-.831,3.7,3.7,0,0,1,.027-.947,3.227,3.227,0,0,1,.275-.9A2.031,2.031,0,0,1,3.813.428,1.849,1.849,0,0,1,4.6.046,2.359,2.359,0,0,1,5.434.028a4.407,4.407,0,0,1,.817.208c.263.091.515.2.745.294l.087.036L7.168.6l.084.035L7.335.67a1.921,1.921,0,0,0,.191.065c.065.018.132.033.2.045s.134.02.2.025a1.864,1.864,0,0,0,.2,0c.024,0,.048,0,.073-.006L8.273.791,8.355.774l.086-.02C8.493.743,8.546.73,8.6.719S8.713.7,8.77.692A1.291,1.291,0,0,1,8.945.683.979.979,0,0,1,9.124.7a.962.962,0,0,1,.21.069.865.865,0,0,1,.18.112.844.844,0,0,1,.146.151.9.9,0,0,1,.107.188,1.032,1.032,0,0,1,.072.272,1.268,1.268,0,0,1,0,.294,1.368,1.368,0,0,1-.065.295,1.288,1.288,0,0,1-.13.274,3.473,3.473,0,0,1-.471.6,3.2,3.2,0,0,1-.495.408,3.7,3.7,0,0,1-.478.269c-.152.072-.295.129-.421.18l-.118.048L7.56,3.9c-.033.015-.063.029-.089.043a.588.588,0,0,0-.069.042,1.034,1.034,0,0,0-.171.17,1.59,1.59,0,0,0-.27.486,2.085,2.085,0,0,0-.1.84,3.677,3.677,0,0,0,.332,1.232,4.216,4.216,0,0,1,.3,1.049,6.287,6.287,0,0,1,.069,1.1c-.007.372-.039.745-.083,1.114s-.1.733-.153,1.085l-.03.2-.029.194q-.014.1-.028.191t-.026.189a5.185,5.185,0,0,0-.049.713,2.883,2.883,0,0,0,.047.523,1.624,1.624,0,0,0,.11.361.988.988,0,0,0,.14.229.791.791,0,0,0,.133.126.809.809,0,0,0,.159.093.965.965,0,0,0,.185.06,1.279,1.279,0,0,0,.211.027h.31A1.235,1.235,0,0,1,9.7,15.2a.306.306,0,0,1-.306.306H6.911a.306.306,0,1,1,0-.612H9a.629.629,0,0,0-.225-.23.62.62,0,0,0-.318-.088H8.136a1.965,1.965,0,0,1-.346-.046,1.574,1.574,0,0,1-.306-.1,1.394,1.394,0,0,1-.266-.16,1.41,1.41,0,0,1-.225-.216,1.613,1.613,0,0,1-.246-.411,2.335,2.335,0,0,1-.146-.521,3.7,3.7,0,0,1-.046-.63,5.889,5.889,0,0,1,.054-.737q.013-.1.026-.192t.028-.194l.029-.2.03-.2c.053-.348.107-.7.149-1.047s.073-.7.081-1.036a5.685,5.685,0,0,0-.056-1,3.657,3.657,0,0,0-.265-.929,4.4,4.4,0,0,1-.365-1.282,2.917,2.917,0,0,1,.052-1.01,2.3,2.3,0,0,1,.311-.731A1.734,1.734,0,0,1,7.04,3.5Z" transform="translate(1.916)" fill="#f98c10"/>
    <path id="Path_45536" data-name="Path 45536" d="M0,.31A.308.308,0,1,0,.024.189.308.308,0,0,0,0,.31" transform="translate(7.589 1.264)" fill="#f98c10"/>
</svg>
