<svg xmlns="http://www.w3.org/2000/svg" width="17.721" height="17.721" viewBox="0 0 17.721 17.721">
    <g id="Group_5723" data-name="Group 5723" transform="translate(-1823 -1225)">
        <path id="Path_45532" data-name="Path 45532" d="M22.1,17.862,19.257,15.8c-.848-.615-1.54.17-1.954.64-.579.657-.7.666-.9.522a24.314,24.314,0,0,1-3.047-2.595,24.315,24.315,0,0,1-2.595-3.047c-.143-.2-.135-.324.522-.9.469-.414,1.255-1.106.64-1.954L9.859,5.625a1.557,1.557,0,0,0-1.973-.467,6.273,6.273,0,0,0-2.27,1.4c-.877.877-.816,2.523.172,4.636a23.073,23.073,0,0,0,4.558,6.178,23.073,23.073,0,0,0,6.178,4.558,7.178,7.178,0,0,0,2.926.788,2.326,2.326,0,0,0,1.709-.616,6.274,6.274,0,0,0,1.4-2.271A1.557,1.557,0,0,0,22.1,17.862Zm-.465,1.655a5.307,5.307,0,0,1-1.167,1.892c-.546.546-1.863.408-3.523-.367a22.083,22.083,0,0,1-5.9-4.362,22.083,22.083,0,0,1-4.362-5.9C5.9,9.121,5.766,7.8,6.312,7.258A5.305,5.305,0,0,1,8.2,6.091a1.581,1.581,0,0,1,.487-.1.4.4,0,0,1,.371.217l2.06,2.839c.063.087.008.195-.494.637S9.248,10.9,9.955,11.892a25.318,25.318,0,0,0,2.7,3.173,25.318,25.318,0,0,0,3.173,2.7c1,.707,1.757-.158,2.212-.674s.55-.557.637-.494l2.839,2.06C21.692,18.785,21.842,18.894,21.63,19.517Zm.1-6.649a6.888,6.888,0,0,0-6.879-6.881.492.492,0,1,1,0-.985,7.873,7.873,0,0,1,7.864,7.865.492.492,0,1,1-.985,0Zm-2.092,0a4.793,4.793,0,0,0-4.787-4.789.492.492,0,1,1,0-.985,5.779,5.779,0,0,1,5.771,5.773.492.492,0,0,1-.985,0Zm-1.107,0a.492.492,0,1,1-.985,0,2.7,2.7,0,0,0-2.695-2.7.492.492,0,0,1,0-.985,3.684,3.684,0,0,1,3.679,3.681Z" transform="translate(1818 1220)" fill="#f98c10"/>
    </g>
</svg>
