<svg xmlns="http://www.w3.org/2000/svg" width="14.496" height="15.357" viewBox="0 0 14.496 15.357">
    <path id="Path_45561" data-name="Path 45561" d="M15.461,14.338a14.613,14.613,0,0,1-.032-1.488,2.913,2.913,0,0,0,.8-1.728c.2-.017.523-.215.617-1a.73.73,0,0,0-.273-.73C16.9,8.4,17.588,5.33,15.3,5.013a1.8,1.8,0,0,0-1.62-.622c-3.13.058-3.508,2.364-2.822,5a.731.731,0,0,0-.273.73c.094.782.414.98.617,1a2.907,2.907,0,0,0,.817,1.728,14.617,14.617,0,0,1-.032,1.488C11.372,16,7.193,15.536,7,18.748H20.434C20.242,15.536,16.081,16,15.461,14.338Z" transform="translate(-6.469 -3.891)" fill="none" stroke="#f98c10" stroke-linecap="round" stroke-miterlimit="10" stroke-width="1"/>
</svg>
