<svg xmlns="http://www.w3.org/2000/svg" width="18.787" height="18.788" viewBox="0 0 18.787 18.788">
    <path id="ticket-3263911" d="M116.943,34.683a.335.335,0,0,0-.233.1L104.795,46.694a.335.335,0,0,0,0,.475l1.662,1.662a.335.335,0,0,0,.475,0l.23-.23a1.7,1.7,0,0,1,2.4,2.4l-.23.23h0a.335.335,0,0,0,0,.475L111,53.373h0a.335.335,0,0,0,.475,0l11.912-11.915a.335.335,0,0,0,0-.472l-1.662-1.662a.335.335,0,0,0-.473,0l-.23.23a1.7,1.7,0,0,1-2.407-2.4l.23-.232h0a.335.335,0,0,0,0-.473l-1.662-1.662a.335.335,0,0,0-.239-.1Zm0,.809,1.19,1.189.008-.007a2.369,2.369,0,0,0,3.344,3.357l1.19,1.193-7.4,7.4-5.73-5.73Zm-1.422,4.736a.335.335,0,0,0-.23.1l-2.62,2.62a.336.336,0,1,0,.475.474l2.619-2.619a.335.335,0,0,0-.245-.577ZM117.6,42.3a.336.336,0,0,0-.23.1l-2.622,2.619a.336.336,0,1,0,.474.475l2.62-2.62a.335.335,0,0,0-.243-.576Zm-8.524,1.068,5.73,5.73-3.565,3.563-1.187-1.187-.007.007a2.37,2.37,0,0,0-3.344-3.359l-1.19-1.19Z" transform="translate(-104.696 -34.683)" fill="#f98c10"/>
</svg>
