<svg xmlns="http://www.w3.org/2000/svg" width="32" height="29.394" viewBox="0 0 32 29.394">
  <g id="Group_9611" data-name="Group 9611" transform="translate(-149.814 -863.441)">
    <g id="Group_5742" data-name="Group 5742" transform="translate(155 863.543)">
      <path id="Path_45534" data-name="Path 45534" d="M.173,2.486a.315.315,0,0,1,.142-.2.317.317,0,0,1,.478.218.315.315,0,0,1,0,.126,5.817,5.817,0,0,0-.138.806,3.523,3.523,0,0,0,0,.691A2.19,2.19,0,0,0,.782,4.7a1.525,1.525,0,0,0,.773.84,2.173,2.173,0,0,0,.54.178,2.726,2.726,0,0,0,.436.049c.113,0,.185,0,.194,0H7.484a.964.964,0,0,0-.139-.261A.974.974,0,0,0,7.136,5.3a.96.96,0,0,0-.565-.183h-1.6a.317.317,0,1,1,0-.633,1.927,1.927,0,0,0,0-3.854.317.317,0,1,1,0-.633,2.555,2.555,0,0,1,2.04,4.1,2.6,2.6,0,0,1-.368.392,1.6,1.6,0,0,1,1.409.986,1.582,1.582,0,0,1,.12.605.316.316,0,0,1-.317.317H2.735L2.7,6.4l-.048,0H2.593a3.218,3.218,0,0,1-.387-.024,3.121,3.121,0,0,1-.524-.109,2.571,2.571,0,0,1-.574-.251,2.166,2.166,0,0,1-.535-.448,2.189,2.189,0,0,1-.358-.581,2.726,2.726,0,0,1-.186-.71,4.022,4.022,0,0,1-.014-.837,6.3,6.3,0,0,1,.158-.96Z" transform="translate(0 9.647)"/>
      <path id="Path_45535" data-name="Path 45535" d="M7.286,3.617A1.155,1.155,0,0,1,7.4,3.544c.04-.023.083-.044.127-.065s.091-.041.14-.061l.151-.062c.119-.048.248-.1.384-.163a3.262,3.262,0,0,0,.42-.234,2.718,2.718,0,0,0,.426-.349,2.942,2.942,0,0,0,.4-.508.72.72,0,0,0,.069-.145A.781.781,0,0,0,9.556,1.8a.671.671,0,0,0,0-.153.461.461,0,0,0-.033-.135.3.3,0,0,0-.035-.061A.245.245,0,0,0,9.445,1.4a.267.267,0,0,0-.059-.035.371.371,0,0,0-.072-.022.418.418,0,0,0-.093-.007.86.86,0,0,0-.106.01c-.037.005-.076.013-.116.021L8.878,1.4l-.109.025-.111.022c-.038.007-.075.013-.114.017s-.077.008-.117.009a2.62,2.62,0,0,1-.269-.006c-.091-.007-.182-.018-.273-.034a2.765,2.765,0,0,1-.27-.061,2.564,2.564,0,0,1-.26-.088l-.088-.036-.09-.037-.091-.038L7,1.133C6.771,1.039,6.54.942,6.308.858a4.152,4.152,0,0,0-.7-.192A1.913,1.913,0,0,0,4.947.658a1.306,1.306,0,0,0-.6.276A1.518,1.518,0,0,0,3.94,1.5a2.84,2.84,0,0,0-.209.763,3.227,3.227,0,0,0-.011.8,1.939,1.939,0,0,0,.187.666.47.47,0,0,0,.115.141.613.613,0,0,0,.166.1.769.769,0,0,0,.2.05.872.872,0,0,0,.224,0,.823.823,0,0,0,.146-.036.732.732,0,0,0,.179-.09.632.632,0,0,0,.166-.17.731.731,0,0,0,.107-.274A1.256,1.256,0,0,0,5.22,3.1a2.384,2.384,0,0,0-.085-.429,2.353,2.353,0,0,0-.178-.441,1.586,1.586,0,0,0-.271-.376.317.317,0,1,1,.448-.448,2.192,2.192,0,0,1,.361.489,2.99,2.99,0,0,1,.242.576,2.956,2.956,0,0,1,.116.581,1.862,1.862,0,0,1-.015.506,1.388,1.388,0,0,1-.139.4,1.285,1.285,0,0,1-.245.323,1.3,1.3,0,0,1-.335.231,1.424,1.424,0,0,1-.409.124,1.528,1.528,0,0,1-.216.017,1.471,1.471,0,0,1-.21-.013,1.408,1.408,0,0,1-.2-.042A1.339,1.339,0,0,1,3.9,4.529a4.2,4.2,0,0,1-.169.708,5.1,5.1,0,0,1-.271.655c-.1.211-.221.416-.345.618s-.257.4-.392.6c-.393.572-.758,1.123-1.07,1.664A8.915,8.915,0,0,0,.9,10.377,4.912,4.912,0,0,0,.629,12a4.616,4.616,0,0,0,.359,1.711.316.316,0,0,1-.173.413l-.03.01-.03.007-.03,0H.694a.317.317,0,0,1-.293-.2A5.212,5.212,0,0,1,0,11.88,5.838,5.838,0,0,1,.362,9.991a9.89,9.89,0,0,1,.83-1.71c.322-.54.673-1.051,1-1.533.147-.214.29-.429.422-.647a6.116,6.116,0,0,0,.355-.67,4.007,4.007,0,0,0,.244-.715,3.384,3.384,0,0,0,.091-.78,2.734,2.734,0,0,1-.222-.86,3.831,3.831,0,0,1,.028-.98A3.339,3.339,0,0,1,3.4,1.162,2.1,2.1,0,0,1,3.946.443a1.913,1.913,0,0,1,.817-.4,2.441,2.441,0,0,1,.86-.018,4.561,4.561,0,0,1,.845.215c.273.095.533.2.771.3l.09.038.088.037.087.036L7.59.694a1.987,1.987,0,0,0,.2.067c.067.019.136.035.205.047s.138.021.207.026a1.928,1.928,0,0,0,.2,0c.024,0,.05,0,.076-.007L8.561.819,8.647.8l.089-.02C8.789.768,8.844.756,8.9.744s.115-.021.174-.028A1.336,1.336,0,0,1,9.257.707a1.012,1.012,0,0,1,.186.021A1,1,0,0,1,9.66.8a.9.9,0,0,1,.186.116A.874.874,0,0,1,10,1.071a.932.932,0,0,1,.111.194,1.067,1.067,0,0,1,.075.281,1.312,1.312,0,0,1,0,.3,1.416,1.416,0,0,1-.067.305,1.334,1.334,0,0,1-.134.283,3.594,3.594,0,0,1-.488.618,3.314,3.314,0,0,1-.512.422,3.833,3.833,0,0,1-.495.278c-.157.075-.3.134-.436.186l-.122.049-.109.047c-.034.015-.065.03-.092.045a.605.605,0,0,0-.071.043,1.071,1.071,0,0,0-.177.175,1.646,1.646,0,0,0-.279.5,2.158,2.158,0,0,0-.106.869A3.805,3.805,0,0,0,7.442,6.95a4.363,4.363,0,0,1,.313,1.086,6.506,6.506,0,0,1,.072,1.141c-.007.385-.04.771-.086,1.153s-.1.758-.159,1.123l-.031.2-.03.2q-.015.1-.029.2t-.027.2a5.367,5.367,0,0,0-.051.738,2.983,2.983,0,0,0,.049.541,1.681,1.681,0,0,0,.114.374,1.022,1.022,0,0,0,.145.237.819.819,0,0,0,.137.131.839.839,0,0,0,.165.1,1,1,0,0,0,.191.062,1.323,1.323,0,0,0,.218.028h.321a1.278,1.278,0,0,1,1.278,1.278.316.316,0,0,1-.317.317H7.152a.317.317,0,1,1,0-.633H9.317a.651.651,0,0,0-.232-.238.641.641,0,0,0-.33-.091H8.419a2.034,2.034,0,0,1-.358-.048,1.628,1.628,0,0,1-.317-.107,1.443,1.443,0,0,1-.275-.165,1.46,1.46,0,0,1-.233-.223,1.669,1.669,0,0,1-.255-.425,2.416,2.416,0,0,1-.152-.539,3.83,3.83,0,0,1-.048-.652,6.1,6.1,0,0,1,.056-.763q.013-.1.027-.2t.029-.2l.03-.2.031-.205c.055-.36.111-.723.154-1.084s.076-.72.084-1.073a5.881,5.881,0,0,0-.058-1.032,3.783,3.783,0,0,0-.274-.962A4.557,4.557,0,0,1,6.485,5.88a3.019,3.019,0,0,1,.054-1.045,2.375,2.375,0,0,1,.322-.756,1.794,1.794,0,0,1,.426-.461Z" transform="translate(1.983 0)"/>
      <path id="Path_45536" data-name="Path 45536" d="M0,.32A.319.319,0,1,0,.025.2.319.319,0,0,0,0,.32" transform="translate(7.854 1.308)"/>
    </g>
    <g id="noun-cat-1023806" transform="translate(169 863.543)">
      <path id="Path_45612" data-name="Path 45612" d="M222.156,18.846c.674-2.21,2.547-3.283,4.059-4.146,1-.582,1.788-1.029,1.808-1.6a2.987,2.987,0,0,1,1.573-2.841h0a2.508,2.508,0,0,1,1.315-1.494.2.2,0,0,1,.28.173l.037.509,1.069-.469a.2.2,0,0,1,.282.225l-.38,1.92c.355.254.739.538,1.015.773a.2.2,0,0,1,.069.116c.179.913-.936,1.544-1.37,1.751a6.07,6.07,0,0,1-.55,4.586,4.927,4.927,0,0,0-.7,4.552c.749.067,1.183.28,1.327.651.2.53-.321,1.094-.381,1.157h0a.2.2,0,0,1-.146.061h-6.782a1.635,1.635,0,0,0,.609,1.42c.708.505,1.928.436,3.346-.187a1.622,1.622,0,0,1,1.857.1h0a.925.925,0,0,1,.12,1.082c-.319.629-1.291,1.218-3.093,1.218h0a10.051,10.051,0,0,1-1.236-.081c-1.753-.217-2.876-.822-3.338-1.8a3.681,3.681,0,0,1,.359-3.145c-.353-.52-1.745-2.691-1.151-4.537ZM232.1,9.512l-.844.369.047.627c.1.071.3.2.53.363ZM223.716,23.25a.2.2,0,0,1,0,.229c0,.016-1,1.611-.406,2.875.406.842,1.42,1.37,3.02,1.569,2.4.3,3.608-.306,3.917-.913h0a.517.517,0,0,0-.053-.609.791.791,0,0,0-.586-.2,2.045,2.045,0,0,0-.812.2c-1.552.659-2.908.7-3.734.124a2.056,2.056,0,0,1-.775-1.966h0a.2.2,0,0,1,.2-.187H229.2a.8.8,0,0,0-.016-.621.72.72,0,0,0-.631-.24,1.745,1.745,0,0,0-1,.187h0a.2.2,0,0,1-.317-.246c0-.014.812-1.492.272-2.5a2.146,2.146,0,0,0-1.826-.942h0a.2.2,0,1,1,.041-.406,2.521,2.521,0,0,1,2.155,1.155,3.024,3.024,0,0,1-.059,2.4,3.484,3.484,0,0,1,.753-.071,1.621,1.621,0,0,1,.491.1,22.75,22.75,0,0,1-.306-3.261.2.2,0,1,1,.406,0c.03.988.2,3.728.712,4.4a.2.2,0,0,1,.022.045h1.469c.126-.152.323-.457.24-.668s-.473-.361-1.1-.406h0a.2.2,0,0,1-.168-.114,5.3,5.3,0,0,1,.678-5.059,5.915,5.915,0,0,0,.453-4.416.2.2,0,0,1,.118-.248c.388-.156,1.345-.686,1.3-1.3-.664-.548-1.883-1.362-1.9-1.37h0a.2.2,0,0,1-.089-.154l-.1-1.343h0a2.137,2.137,0,0,0-.848,1.177.2.2,0,0,1-.116.13,2.581,2.581,0,0,0-1.42,2.52c-.03.791-.907,1.295-2.029,1.932-1.443.826-3.247,1.857-3.866,3.914-.587,1.875,1.173,4.261,1.189,4.288Z" transform="translate(-222.01 -8.753)" stroke="#000" stroke-width="0.2"/>
      <path id="Path_45613" data-name="Path 45613" d="M275.634,82.746a.312.312,0,1,0,.312-.312.312.312,0,0,0-.312.312" transform="translate(-266.91 -79.764)" stroke="#000" stroke-width="0.2"/>
    </g>
    <g id="noun-service-4531549" transform="translate(71.304 788.281)">
      <path id="Path_45614" data-name="Path 45614" d="M110.219,325.983a1.3,1.3,0,0,0-1.69-.3l-2.6,1.535a3.409,3.409,0,0,1-.775.35l-2.62.865c-.91-1.23-4-1.47-6.536-1.45a4.1,4.1,0,0,1-1.88-.435c-5.041-2.51-7.821-1.93-9.027-1.36a12.918,12.918,0,0,1-1.655.645l-.035-.14a1.288,1.288,0,0,0-.585-.81,1.309,1.309,0,0,0-.985-.155l-2.335.575a1.305,1.305,0,0,0-.955,1.555l1.9,8.072a1.284,1.284,0,0,0,1.57.96l2.335-.575a1.3,1.3,0,0,0,.95-1.555l-.065-.285.335-.05a4.562,4.562,0,0,1,1.605.045l7.682,1.64a3.83,3.83,0,0,0,.75.08,3.592,3.592,0,0,0,1.235-.22l6.967-2.531a3.5,3.5,0,0,0,.985-.545L110,327.849a1.328,1.328,0,0,0,.505-1.04,1.286,1.286,0,0,0-.29-.825ZM84.17,334.61l-2.335.575a.563.563,0,0,1-.685-.415l-1.89-8.077a.564.564,0,0,1,.415-.675l2.335-.575a.586.586,0,0,1,.43.065.566.566,0,0,1,.255.35l.2.85,1.535,6.551c0,.005.005.005.005.01l.155.665a.57.57,0,0,1-.42.675Zm25.384-7.331-5.216,4.051a2.88,2.88,0,0,1-.78.43L96.592,334.3a2.836,2.836,0,0,1-1.58.11l-7.686-1.64a5.343,5.343,0,0,0-1.09-.115,5.113,5.113,0,0,0-.78.06l-.4.06L83.6,326.559a13.235,13.235,0,0,0,1.8-.7c1.09-.515,3.626-1.02,8.392,1.355a4.838,4.838,0,0,0,2.215.51c3.381-.03,5.686.465,6.021,1.3v.01a.572.572,0,0,1,.045.215.373.373,0,0,1-.125.26c-.205.21-.81.55-2.575.455a16.159,16.159,0,0,1-1.76-.175c-1.55-.245-3.525-.355-4.171.495a.372.372,0,0,0,.07.515.366.366,0,0,0,.22.075.377.377,0,0,0,.3-.145c.31-.41,1.675-.495,3.471-.21a17.584,17.584,0,0,0,1.835.185c1.61.085,2.681-.16,3.181-.725a1.013,1.013,0,0,0,.285-.785c0-.02-.005-.035-.005-.05l2.591-.855a4.3,4.3,0,0,0,.92-.42l2.6-1.535a.572.572,0,0,1,.745.13.583.583,0,0,1,.13.365.552.552,0,0,1-.22.455Z" transform="translate(0 -231.382)"/>
    </g>
  </g>
</svg>
