<svg id="Tick_round_check" data-name="Tick round check" xmlns="http://www.w3.org/2000/svg" width="17.721" height="17.721" viewBox="0 0 17.721 17.721">
    <g id="Group_5718" data-name="Group 5718" transform="translate(0 0)">
        <g id="Group_5717" data-name="Group 5717">
            <path id="Path_45528" data-name="Path 45528" d="M8.86,0a8.86,8.86,0,1,0,8.86,8.86A8.87,8.87,0,0,0,8.86,0Zm0,16.348A7.488,7.488,0,1,1,16.348,8.86,7.5,7.5,0,0,1,8.86,16.348Z" transform="translate(0 0)" fill="#f98c10"/>
        </g>
    </g>
    <g id="Group_5720" data-name="Group 5720" transform="translate(4.571 5.601)">
        <g id="Group_5719" data-name="Group 5719">
            <path id="Path_45529" data-name="Path 45529" d="M140.433,162a.687.687,0,0,0-.969.047l-4.187,4.61-2.023-2.056a.686.686,0,1,0-.979.962l2.532,2.574a.686.686,0,0,0,.489.205h.013a.687.687,0,0,0,.495-.225l4.675-5.147A.687.687,0,0,0,140.433,162Z" transform="translate(-132.079 -161.824)" fill="#f98c10"/>
        </g>
    </g>
</svg>
