<svg xmlns="http://www.w3.org/2000/svg" width="24.256" height="25.294" viewBox="0 0 24.256 25.294">
  <g id="Group_5585" data-name="Group 5585" transform="translate(-126.599 -1245.359)">
    <path id="Path_1315" data-name="Path 1315" d="M170.255,76.874a.654.654,0,0,0-.013-.13l-1.814-8.95a.653.653,0,0,0-.639-.524H148.466a.653.653,0,0,0-.639.524l-1.814,8.95a.658.658,0,0,0-.013.13,3.076,3.076,0,0,0,.93,2.2V89.511a3.057,3.057,0,0,0,3.052,3.054h16.292a3.056,3.056,0,0,0,3.052-3.054V79.075a3.071,3.071,0,0,0,.929-2.2Zm-1.306.06a1.781,1.781,0,0,1-3.406.67l-.892-9.028h2.6Zm-16.035-8.358h2.713l-.405,9.045a1.771,1.771,0,0,1-3.205.042Zm4.019,0h2.388l.406,9.071a1.771,1.771,0,0,1-3.2,0Zm4.1,9.045-.405-9.045h2.713l.9,9.086a1.772,1.772,0,0,1-3.205-.041ZM149,68.576h2.6L150.71,77.6a1.781,1.781,0,0,1-3.406-.67Zm6.99,22.683h-4.626V85.3a2.313,2.313,0,0,1,4.626,0Zm12.032-1.748a1.75,1.75,0,0,1-1.748,1.748h-8.979V85.3a3.618,3.618,0,0,0-7.236,0v5.963h-.077a1.75,1.75,0,0,1-1.748-1.748V79.828a3.014,3.014,0,0,0,.856.137,3.068,3.068,0,0,0,2.259-.983,3.087,3.087,0,0,0,4.519,0,3.086,3.086,0,0,0,4.518,0,3.087,3.087,0,0,0,4.519,0,3.068,3.068,0,0,0,2.259.983,3.014,3.014,0,0,0,.856-.137v9.683Z" transform="translate(-19.4 1178.089)"/>
    <path id="Path_1316" data-name="Path 1316" d="M370.03,309.62h-6.065a.653.653,0,0,0-.653.653v4.3a.652.652,0,0,0,.653.653h6.065a.652.652,0,0,0,.653-.653v-4.3A.653.653,0,0,0,370.03,309.62Zm-.652,4.3h-4.76v-3h4.76Z" transform="translate(-223.794 950.147)"/>
  </g>
</svg>
