<svg xmlns="http://www.w3.org/2000/svg" width="24.623" height="20.474" viewBox="0 0 24.623 20.474">
    <g id="Group_5871" data-name="Group 5871" transform="translate(-1679.229 -1370)">
        <path id="Path_45566" data-name="Path 45566" d="M447.147,267.027a.279.279,0,1,0-.521.2l.686,1.794a.279.279,0,0,0,.261.179.279.279,0,0,0,.261-.379Z" transform="translate(1249.653 1113.458)" fill="#f98c10"/>
        <path id="Path_45567" data-name="Path 45567" d="M121.494,66.924l-.261.1a1.781,1.781,0,0,1-.639.119,1.667,1.667,0,0,1-1.578-1.06,1.633,1.633,0,0,1,.05-1.282,1.754,1.754,0,0,1,.972-.9l.261-.1-1.131-2.954-2.363.9-.76-.9-.213.18a1.77,1.77,0,0,1-1.141.422,1.647,1.647,0,0,1-1.263-.578,1.63,1.63,0,0,1-.377-1.226,1.754,1.754,0,0,1,.62-1.17l.213-.18-2.044-2.415L98,67.6l2.068,2.444.215-.22a1.737,1.737,0,0,1,.131-.122,1.768,1.768,0,0,1,1.14-.422,1.648,1.648,0,0,1,1.263.578,1.706,1.706,0,0,1-.243,2.4c-.046.039-.094.075-.142.109l-.254.175,2.069,2.445.692-.586.753,1.967,11.689-4.475h0l5.24-2.006Zm-19.938,1.794a2.326,2.326,0,0,0-1.444.507l-1.323-1.564,8.915-7.545.9,1.066a.279.279,0,0,0,.426-.361l-.9-1.066,3.644-3.083,1.333,1.575a2.3,2.3,0,0,0-.612,1.348,2.19,2.19,0,0,0,2.2,2.417,2.32,2.32,0,0,0,1.277-.386l.285.336-4.727,1.81c0-.006-.006-.013-.01-.019l-1.241-1.466a.279.279,0,0,0-.427.361l1.129,1.334-6.792,2.6,4.487-3.515a.367.367,0,0,0,.068-.485.3.3,0,0,0-.446-.083l-5.409,4.237a.358.358,0,0,0-.11.386l-.537.206.721,1.885a2.218,2.218,0,0,0-1.4-.494Zm3.291,4.57-.3.081.18.471-.416.352-1.323-1.563a2.293,2.293,0,0,0,.649-2.439l.017-.008c.052-.026.107-.05.164-.072a1.781,1.781,0,0,1,.639-.119,1.651,1.651,0,0,1,1.578,1.061,1.633,1.633,0,0,1-.05,1.282,1.754,1.754,0,0,1-.972.9c-.056.021-.113.04-.169.055Zm12.1-3.328a.279.279,0,1,0-.521.2l.5,1.3-10.908,4.176-.732-1.912a2.308,2.308,0,0,0,1.21-1.158,2.194,2.194,0,0,0-.081-2.025,2.228,2.228,0,0,0-1.953-1.111,2.334,2.334,0,0,0-.77.131l-.732-1.913,10.908-4.176.5,1.3a.279.279,0,1,0,.521-.2l-.5-1.3,4.458-1.706.738,1.927a2.3,2.3,0,0,0-1.023,1.071,2.184,2.184,0,0,0-.065,1.717,2.22,2.22,0,0,0,2.1,1.419,2.316,2.316,0,0,0,.572-.071l.738,1.927-4.458,1.706Z" transform="translate(1581.228 1314.113)" fill="#f98c10"/>
        <path id="Path_45568" data-name="Path 45568" d="M282,251.341a.3.3,0,0,0-.4-.208l-6.4,2.5a.367.367,0,0,0-.2.445.315.315,0,0,0,.238.224.294.294,0,0,0,.165-.016l6.4-2.5a.367.367,0,0,0,.2-.445Z" transform="translate(1412.897 1128.426)" fill="#f98c10"/>
        <path id="Path_45569" data-name="Path 45569" d="M295.753,296.661a.3.3,0,0,0-.4-.208l-6.4,2.5a.367.367,0,0,0-.2.445.315.315,0,0,0,.238.224.294.294,0,0,0,.165-.016l6.4-2.5A.366.366,0,0,0,295.753,296.661Z" transform="translate(1399.818 1085.32)" fill="#f98c10"/>
        <path id="Path_45570" data-name="Path 45570" d="M304.69,377.109l-1.973.769a.367.367,0,0,0-.2.445.316.316,0,0,0,.238.224.3.3,0,0,0,.165-.016l1.973-.769a.367.367,0,0,0,.2-.445A.3.3,0,0,0,304.69,377.109Z" transform="translate(1386.723 1008.604)" fill="#f98c10"/>
        <path id="Path_45571" data-name="Path 45571" d="M395.33,341.762l-1.973.769a.367.367,0,0,0-.2.445.315.315,0,0,0,.238.224.3.3,0,0,0,.165-.016l1.973-.769a.367.367,0,0,0,.2-.445.3.3,0,0,0-.4-.208Z" transform="translate(1300.511 1042.224)" fill="#f98c10"/>
    </g>
</svg>
