<svg id="love_heart_1814104" data-name="love heart_1814104" xmlns="http://www.w3.org/2000/svg" width="14.907" height="13.036" viewBox="0 0 14.907 13.036">
    <g id="Icon-Heart" transform="translate(0 0)">
        <path id="Fill-18" d="M-162.446-205.864l-.249-.218c-5.676-4.616-7.2-6.237-7.2-8.888a3.933,3.933,0,0,1,3.93-3.93,4.5,4.5,0,0,1,3.524,1.809,4.5,4.5,0,0,1,3.524-1.809,3.933,3.933,0,0,1,3.93,3.93c0,2.651-1.528,4.273-7.2,8.888l-.25.218Zm-3.524-12.225a3.128,3.128,0,0,0-3.119,3.119c0,2.277,1.435,3.774,6.643,8.046,5.208-4.273,6.643-5.77,6.643-8.046a3.128,3.128,0,0,0-3.119-3.119,3.893,3.893,0,0,0-3.056,1.684l-.468.53-.468-.53a3.893,3.893,0,0,0-3.056-1.684Z" transform="translate(169.9 218.9)" fill="#f98c10"/>
    </g>
</svg>
